<svg xmlns="http://www.w3.org/2000/svg" xmlns:xlink="http://www.w3.org/1999/xlink" width="16" height="16" viewBox="0 0 16 16">
    <defs>
        <rect id="a" width="16" height="16" rx="2"/>
    </defs>
    <g fill="none" fill-rule="evenodd">
        <use fill="#0084FF" xlink:href="#a"/>
        <rect width="15" height="15" x=".5" y=".5" stroke="#0079E9" rx="2"/>
        <g fill="#FFF">
            <path d="M6.24 12.387L2.095 8.241c-.125-.189-.125-.44 0-.566l.566-.565c.125-.126.377-.126.565 0l3.079 3.141c.125.126.314.126.377 0l6.094-6.157c.188-.125.44-.125.565 0l.566.566c.125.125.125.377 0 .565l-7.1 7.162c-.188.189-.44.189-.565 0z"/>
        </g>
    </g>
</svg>
