<svg xmlns="http://www.w3.org/2000/svg" width="32" height="32" viewBox="0 0 32 32">
    <g fill="none" fill-rule="evenodd" transform="translate(3 3)">
        <circle cx="13" cy="13" r="13" fill="#E0E3EC" stroke="#102F80" stroke-width="2"/>
        <path fill="#102F80" d="M17.5 6c.307 0 .533.107.68.32.147.213.22.467.22.76s-.073.547-.22.76c-.147.213-.373.32-.68.32h-5.94v4.02h5.52c.307 0 .533.107.68.32.147.213.22.467.22.76s-.073.547-.22.76c-.147.213-.373.32-.68.32h-5.52v4.9c0 .387-.127.667-.38.84-.253.173-.553.26-.9.26s-.647-.087-.9-.26c-.253-.173-.38-.453-.38-.84V7.66c0-.627.123-1.06.37-1.3S10.06 6 10.7 6h6.8z"/>
    </g>
</svg>
