<svg xmlns="http://www.w3.org/2000/svg" width="20" height="20" viewBox="0 0 20 20">
    <path fill="#C1C1C1" fill-rule="evenodd" d="M18.786 3.278a.73.73 0 0 0 0-1.033l-1.031-1.031a.73.73 0 0 0-1.033 0l-6.378 6.378a.487.487 0 0 1-.688 0L3.278 1.214a.73.73 0 0 0-1.033 0L1.214 2.245a.73.73 0 0 0 0 1.033l6.378 6.378c.19.19.19.498 0 .688l-6.378 6.378a.73.73 0 0 0 0 1.033l1.031 1.031a.73.73 0 0 0 1.033 0l6.378-6.378c.19-.19.498-.19.688 0l6.378 6.378a.73.73 0 0 0 1.033 0l1.031-1.031a.73.73 0 0 0 0-1.033l-6.378-6.378a.487.487 0 0 1 0-.688l6.378-6.378z"/>
</svg>
