<svg xmlns="http://www.w3.org/2000/svg" width="32" height="32" viewBox="0 0 32 32">
    <g fill="none" fill-rule="evenodd" transform="translate(3 3)">
        <circle cx="13" cy="13" r="13" fill="#E0E3EC" stroke="#102F80" stroke-width="2"/>
        <path fill="#102F80" d="M13.6 6c1.533 0 2.673.29 3.42.87.747.58 1.12 1.477 1.12 2.69v.24c0 .333-.04.653-.12.96-.08.307-.21.59-.39.85a2.62 2.62 0 0 1-.7.68 3.36 3.36 0 0 1-1.07.45c.44.067.84.18 1.2.34.36.16.67.377.93.65s.46.6.6.98c.14.38.21.83.21 1.35v.32c0 1.213-.373 2.157-1.12 2.83-.747.673-1.9 1.01-3.46 1.01H9.7c-.64 0-1.083-.12-1.33-.36-.247-.24-.37-.673-.37-1.3V7.66c0-.627.123-1.06.37-1.3S9.06 6 9.7 6h3.9zm-3.06 12.1h2.32c.56 0 1.05-.02 1.47-.06.42-.04.767-.13 1.04-.27a1.35 1.35 0 0 0 .61-.61c.133-.267.2-.62.2-1.06v-.26c0-.333-.053-.627-.16-.88a1.316 1.316 0 0 0-.56-.62c-.267-.16-.627-.28-1.08-.36-.453-.08-1.02-.12-1.7-.12h-2.14v4.24zm0-6.32h2.08c.587 0 1.07-.03 1.45-.09.38-.06.68-.163.9-.31.22-.147.37-.34.45-.58.08-.24.12-.547.12-.92V9.7c0-.64-.237-1.063-.71-1.27-.473-.207-1.25-.31-2.33-.31h-1.96v3.66z"/>
    </g>
</svg>
