<svg xmlns="http://www.w3.org/2000/svg" width="32" height="32" viewBox="0 0 32 32">
    <g fill="none" fill-rule="evenodd" transform="translate(3 3)">
        <circle cx="13" cy="13" r="13" fill="#E0E3EC" stroke="#102F80" stroke-width="2"/>
        <path fill="#102F80" d="M13 6c1.04 0 1.95.123 2.73.37s1.437.64 1.97 1.18c.533.54.933 1.237 1.2 2.09.267.853.4 1.887.4 3.1v.74c0 1.213-.133 2.247-.4 3.1-.267.853-.667 1.55-1.2 2.09-.533.54-1.19.933-1.97 1.18-.78.247-1.69.37-2.73.37H9.7c-.64 0-1.083-.12-1.33-.36-.247-.24-.37-.673-.37-1.3V7.66c0-.627.123-1.06.37-1.3S9.06 6 9.7 6H13zm-2.46 12.06h2.12c.733 0 1.357-.08 1.87-.24.513-.16.933-.427 1.26-.8.327-.373.563-.863.71-1.47.147-.607.22-1.363.22-2.27v-.34c0-.893-.073-1.647-.22-2.26-.147-.613-.383-1.107-.71-1.48a2.702 2.702 0 0 0-1.26-.8c-.513-.16-1.137-.24-1.87-.24h-2.12v9.9z"/>
    </g>
</svg>
