<svg xmlns="http://www.w3.org/2000/svg" width="32" height="32" viewBox="0 0 32 32">
    <g fill="none" fill-rule="evenodd" transform="translate(3 3)">
        <circle cx="13" cy="13" r="13" fill="#E0E3EC" stroke="#102F80" stroke-width="2"/>
        <path fill="#102F80" d="M16.52 6c.307 0 .53.103.67.31.14.207.21.457.21.75 0 .28-.07.527-.21.74-.14.213-.363.32-.67.32h-5.98v3.78h5.58c.293 0 .51.103.65.31.14.207.21.45.21.73 0 .28-.07.523-.21.73-.14.207-.357.31-.65.31h-5.58v4.12h6.12c.307 0 .53.107.67.32.14.213.21.46.21.74 0 .293-.07.543-.21.75-.14.207-.363.31-.67.31H9.7c-.64 0-1.083-.12-1.33-.36-.247-.24-.37-.673-.37-1.3V7.66c0-.627.123-1.06.37-1.3S9.06 6 9.7 6h6.82z"/>
    </g>
</svg>
