<svg xmlns="http://www.w3.org/2000/svg" width="32" height="32" viewBox="0 0 32 32">
    <g fill="none" fill-rule="evenodd" transform="translate(3 3)">
        <circle cx="13" cy="13" r="13" fill="#E0E3EC" stroke="#102F80" stroke-width="2"/>
        <path fill="#102F80" d="M13.1 6c.92 0 1.72.1 2.4.3.68.2 1.253.46 1.72.78.307.213.473.473.5.78a1.27 1.27 0 0 1-.24.86c-.173.253-.4.42-.68.5-.28.08-.56.033-.84-.14a4.974 4.974 0 0 0-1.3-.55c-.44-.113-.98-.17-1.62-.17-1.107 0-1.96.363-2.56 1.09-.6.727-.9 1.95-.9 3.67v.42c0 1.68.287 2.89.86 3.63.573.74 1.447 1.11 2.62 1.11.667 0 1.25-.077 1.75-.23.5-.153.983-.383 1.45-.69.267-.187.547-.257.84-.21.293.047.54.21.74.49.2.28.28.587.24.92-.04.333-.22.613-.54.84a6.282 6.282 0 0 1-2.01.94 9.42 9.42 0 0 1-2.53.32c-.947 0-1.79-.133-2.53-.4a4.642 4.642 0 0 1-1.88-1.24c-.513-.56-.907-1.277-1.18-2.15-.273-.873-.41-1.917-.41-3.13v-.82c0-1.213.137-2.257.41-3.13.273-.873.67-1.59 1.19-2.15.52-.56 1.16-.973 1.92-1.24S12.14 6 13.1 6z"/>
    </g>
</svg>
