<svg xmlns="http://www.w3.org/2000/svg" width="32" height="32" viewBox="0 0 32 32">
    <g fill="none" fill-rule="evenodd" transform="translate(3 3)">
        <circle cx="13" cy="13" r="13" fill="#E0E3EC" stroke="#102F80" stroke-width="2"/>
        <path fill="#102F80" d="M13.15 6c.347 0 .647.08.9.24.253.16.473.473.66.94l4.5 11.6c.147.387.147.72 0 1s-.387.473-.72.58c-.333.107-.663.12-.99.04-.327-.08-.563-.333-.71-.76l-1.16-3.2h-5.04l-1.18 3.28c-.147.387-.37.617-.67.69-.3.073-.61.057-.93-.05-.32-.107-.553-.287-.7-.54-.147-.253-.147-.567 0-.94l4.5-11.7c.173-.467.39-.78.65-.94.26-.16.557-.24.89-.24zm-.04 3.2c-.107.4-.21.757-.31 1.07-.1.313-.23.697-.39 1.15l-1.06 2.9h3.52l-1.04-2.9c-.173-.467-.31-.867-.41-1.2-.1-.333-.203-.673-.31-1.02z"/>
    </g>
</svg>
