<svg xmlns="http://www.w3.org/2000/svg" xmlns:xlink="http://www.w3.org/1999/xlink" width="432" height="256" viewBox="0 0 432 256">
    <defs>
        <path id="a" d="M0 0h432v256H0z"/>
    </defs>
    <g fill="none" fill-rule="evenodd">
        <use fill="#102F80" xlink:href="#a"/>
        <path stroke="#102F80" d="M.5.5h431v255H.5z"/>
        <g>
            <path fill="#FFF" d="M24 24h384v208H24z"/>
            <path fill="#102F80" d="M39.948 117.354c.719 0 1.451.34 2.198 1.022.747.681 1.12 2.002 1.12 3.962 0 1.96-.373 3.278-1.12 3.955-.747.677-1.48 1.015-2.198 1.015-.737 0-1.48-.338-2.226-1.015-.747-.677-1.12-1.995-1.12-3.955s.373-3.28 1.12-3.962c.747-.681 1.489-1.022 2.226-1.022zm8.302 4.34v1.47h-1.722v5.6h-1.624V116.29h1.624v5.404h1.722zm-8.302 4.2c.532 0 .952-.317 1.26-.952.308-.635.462-1.503.462-2.604 0-1.11-.154-1.986-.462-2.625-.308-.64-.728-.959-1.26-.959-.541 0-.968.32-1.281.959-.313.64-.469 1.514-.469 2.625 0 1.101.156 1.97.469 2.604.313.635.74.952 1.281.952zm18.779-1.974v4.83h-1.624v-.322H51.95v.336h-1.624v-4.844h8.4zm0-7.63v7.084h-1.638v-7.084h1.638zm-8.68 5.166c.27-.187.543-.43.819-.728.275-.299.46-.649.553-1.05h-2.674v-1.358h6.972v1.358h-2.562c.084.345.25.658.497.938.247.28.506.509.777.686.233.15.485.296.756.441.27.145.658.264 1.162.357l-1.05 1.288a10.45 10.45 0 0 1-.917-.399 5.179 5.179 0 0 1-.721-.455 7.276 7.276 0 0 1-.75-.651 4.96 4.96 0 0 1-.566-.665c-.15.233-.334.464-.553.693a8.22 8.22 0 0 1-1.561 1.26c-.224.135-.542.306-.952.511l-1.246-1.232c.466-.14.847-.29 1.14-.448.295-.159.586-.34.876-.546zm4.144-4.914v1.19h-3.71v-1.19h3.71zm-2.24 10.528h5.152v-1.792H51.95v1.792zm11.19-7.266h-2.366v-1.26a4.132 4.132 0 0 0 1.813-.364c.546-.252.88-.672 1.001-1.26h1.274v9.8h-1.722v-6.916zm4.583 2.016c0-1.11.21-2.238.63-3.381.42-1.143 1.32-1.715 2.702-1.715 1.39 0 2.296.572 2.716 1.715.42 1.143.63 2.27.63 3.381 0 1.11-.21 2.238-.63 3.381-.42 1.143-1.325 1.715-2.716 1.715-1.381 0-2.282-.572-2.702-1.715-.42-1.143-.63-2.27-.63-3.381zm1.568 0c0 1.017.124 1.9.371 2.646.247.747.712 1.12 1.393 1.12.69 0 1.157-.373 1.4-1.12.243-.747.364-1.629.364-2.646 0-1.027-.121-1.911-.364-2.653s-.71-1.113-1.4-1.113c-.681 0-1.146.371-1.393 1.113-.247.742-.371 1.626-.371 2.653zm10.337-2.268c.009.915.263 1.972.763 3.171.499 1.2 1.43 2.242 2.793 3.129l-1.302 1.414c-.579-.457-1.167-1.099-1.764-1.925-.598-.826-1.032-1.594-1.302-2.303-.252.803-.714 1.624-1.386 2.464-.672.84-1.279 1.465-1.82 1.876l-1.456-1.162c1.894-1.475 3.005-2.849 3.332-4.123.326-1.274.513-2.868.56-4.781l1.708.154c-.019.383-.04.737-.063 1.064a54.75 54.75 0 0 0-.063 1.022zm5.852-3.262v12.474h-1.624V116.29h1.624zm5.926 7.378h-4.592v-1.512h4.592v1.512zm6.291.112c.243.308.597.649 1.064 1.022.467.373.929.686 1.386.938l-1.12 1.316a26.61 26.61 0 0 1-1.022-.721 7.19 7.19 0 0 1-.91-.777 11.896 11.896 0 0 1-.763-.896c-.285-.364-.488-.69-.609-.98-.13.317-.355.679-.672 1.085-.317.406-.597.735-.84.987-.28.29-.567.553-.861.791-.294.238-.604.45-.931.637l-1.218-1.246a7.62 7.62 0 0 0 1.365-.882 6.34 6.34 0 0 0 1.197-1.232c.299-.392.56-.884.784-1.477.224-.593.336-1.384.336-2.373v-.658h-2.8v-1.484h7.238v1.47l-2.772.014v.63c0 1.13.119 1.95.357 2.464.238.513.502.97.791 1.372zm4.606-7.49v12.474h-1.624v-5.922h-2.394v-1.47h2.394v-5.082h1.624zm11.989 0v6.944h-1.624v-2.114h-3.43v-1.26h3.43v-.868h-3.43v-1.26h3.43v-1.442h1.624zm-3.724 4.928l.252 1.47c-.784.121-1.816.205-3.094.252a98.63 98.63 0 0 1-3.584.07v-5.922h1.624v4.452c.55 0 1.304-.021 2.26-.063a19.635 19.635 0 0 0 2.542-.259zm3.724 2.506v5.026h-1.624v-3.556h-7.574v-1.47h9.198zm4.064-3.92h-2.366v-1.26a4.132 4.132 0 0 0 1.813-.364c.546-.252.88-.672 1.001-1.26h1.274v9.8h-1.722v-6.916zm4.583 2.016c0-1.11.21-2.238.63-3.381.42-1.143 1.32-1.715 2.702-1.715 1.39 0 2.296.572 2.716 1.715.42 1.143.63 2.27.63 3.381 0 1.11-.21 2.238-.63 3.381-.42 1.143-1.325 1.715-2.716 1.715-1.381 0-2.282-.572-2.702-1.715-.42-1.143-.63-2.27-.63-3.381zm1.568 0c0 1.017.124 1.9.371 2.646.247.747.712 1.12 1.393 1.12.69 0 1.157-.373 1.4-1.12.243-.747.364-1.629.364-2.646 0-1.027-.121-1.911-.364-2.653s-.71-1.113-1.4-1.113c-.681 0-1.146.371-1.393 1.113-.247.742-.371 1.626-.371 2.653zm10.337-2.268c.009.915.263 1.972.763 3.171.499 1.2 1.43 2.242 2.793 3.129l-1.302 1.414c-.579-.457-1.167-1.099-1.764-1.925-.598-.826-1.032-1.594-1.302-2.303-.252.803-.714 1.624-1.386 2.464-.672.84-1.279 1.465-1.82 1.876l-1.456-1.162c1.894-1.475 3.005-2.849 3.332-4.123.326-1.274.513-2.868.56-4.781l1.708.154c-.019.383-.04.737-.063 1.064a54.74 54.74 0 0 0-.063 1.022zm5.852-3.262v12.474h-1.624V116.29h1.624z"/>
            <text fill="#102F80" font-family="NanumSquareRoundEB, NanumSquareRound" font-size="20" font-weight="600" letter-spacing="-.833" transform="translate(24 24)">
                <tspan x="12" y="33">오픈예정</tspan>
            </text>
            <text fill="#102F80" font-family="NanumSquareRoundEB, NanumSquareRound" font-size="32" font-weight="600" letter-spacing="-1.333" transform="translate(24 24)">
                <tspan x="12" y="77">18.02월 예정</tspan>
            </text>
        </g>
    </g>
</svg>
