<svg xmlns="http://www.w3.org/2000/svg" width="288" height="28" viewBox="0 0 288 28">
    <path fill="#102F80" fill-rule="evenodd" d="M114.893 7.088c-.399 0-.693-.139-.884-.416a1.7 1.7 0 0 1-.286-.988c0-.399.095-.737.286-1.014.19-.277.485-.416.884-.416h13.052c.832 0 1.408.156 1.729.468.32.312.481.875.481 1.69v2.392c0 1.768-.07 3.289-.208 4.563a31.527 31.527 0 0 1-.572 3.523c-.104.468-.351.789-.741.962-.39.173-.819.217-1.287.13-.399-.087-.72-.264-.962-.533-.243-.269-.32-.628-.234-1.079.139-.607.251-1.187.338-1.742.087-.555.156-1.127.208-1.716l-12.246.26c-.433.017-.745-.108-.936-.377-.19-.269-.295-.602-.312-1.001-.017-.399.07-.745.26-1.04.19-.295.485-.442.884-.442l12.506-.13c.017-.225.026-.46.026-.702V7.686c0-.399-.2-.598-.598-.598h-11.388zm16.9 13.338c.399 0 .693.139.884.416a1.7 1.7 0 0 1 .286.988 1.7 1.7 0 0 1-.286.988c-.19.277-.485.416-.884.416h-19.656c-.399 0-.693-.139-.884-.416a1.7 1.7 0 0 1-.286-.988c0-.381.095-.71.286-.988.19-.277.485-.416.884-.416h6.5V16.5c0-.485.169-.84.507-1.066a2.038 2.038 0 0 1 1.157-.338c.433 0 .819.113 1.157.338.338.225.507.58.507 1.066v3.926h9.828zm2.01-11.596c0-.797.135-1.534.404-2.21a4.679 4.679 0 0 1 1.196-1.742c.528-.485 1.178-.862 1.95-1.131.771-.269 1.66-.403 2.665-.403 1.005 0 1.893.134 2.665.403.771.269 1.421.646 1.95 1.131a4.679 4.679 0 0 1 1.196 1.742 5.93 5.93 0 0 1 .403 2.21 5.93 5.93 0 0 1-.403 2.21 4.679 4.679 0 0 1-1.196 1.742c-.529.485-1.179.862-1.95 1.131-.772.269-1.66.403-2.665.403-1.006 0-1.894-.134-2.665-.403-.772-.269-1.422-.646-1.95-1.131a4.679 4.679 0 0 1-1.196-1.742 5.93 5.93 0 0 1-.403-2.21zm9.257 0a3.39 3.39 0 0 0-.17-1.079 2.341 2.341 0 0 0-.545-.897 2.6 2.6 0 0 0-.95-.611c-.38-.147-.84-.221-1.377-.221-.538 0-.997.074-1.378.221a2.6 2.6 0 0 0-.95.611c-.25.26-.433.559-.545.897a3.39 3.39 0 0 0-.17 1.079c0 .381.057.741.17 1.079.112.338.294.637.546.897a2.6 2.6 0 0 0 .949.611c.381.147.84.221 1.378.221.537 0 .996-.074 1.378-.221a2.6 2.6 0 0 0 .949-.611c.251-.26.433-.559.546-.897a3.39 3.39 0 0 0 .169-1.079zm11.726-1.43c.416 0 .719.139.91.416.19.277.286.615.286 1.014s-.096.741-.286 1.027c-.191.286-.494.429-.91.429h-2.444v3.354c0 .485-.17.84-.507 1.066a2.038 2.038 0 0 1-1.157.338c-.434 0-.82-.113-1.157-.338-.338-.225-.507-.58-.507-1.066V4.046c0-.485.169-.84.507-1.066a2.038 2.038 0 0 1 1.157-.338c.433 0 .819.113 1.157.338.338.225.507.58.507 1.066V7.4h2.444zm10.694 4.862h-4.29c-.832 0-1.408-.156-1.729-.468-.32-.312-.48-.875-.48-1.69V5.606c0-.815.16-1.378.48-1.69.321-.312.897-.468 1.73-.468h11.855c.832 0 1.409.156 1.73.468.32.312.48.875.48 1.69v4.498c0 .815-.16 1.378-.48 1.69-.321.312-.898.468-1.73.468h-4.29v2.158h8.216c.399 0 .69.134.871.403.182.269.273.594.273.975s-.09.706-.273.975c-.182.269-.472.403-.87.403h-19.709c-.398 0-.689-.134-.87-.403-.183-.269-.274-.594-.274-.975s.091-.706.273-.975c.182-.269.473-.403.871-.403h8.216v-2.158zm-16.986 7.93c.398 0 .598-.2.598-.598v-.364c0-.399-.2-.598-.598-.598h-10.452c-.382 0-.659-.134-.832-.403a1.665 1.665 0 0 1-.26-.923c0-.347.086-.65.26-.91.173-.26.45-.39.832-.39h12.09c.832 0 1.408.156 1.729.468.32.312.48.875.48 1.69v2.392c0 .815-.16 1.378-.48 1.69-.321.312-.897.468-1.73.468h-9.281c-.399 0-.598.2-.598.598v.364c0 .399.199.598.598.598h10.92c.381 0 .658.134.832.403.173.269.26.576.26.923 0 .347-.087.65-.26.91-.174.26-.451.39-.832.39h-12.558c-.832 0-1.409-.156-1.73-.468-.32-.312-.48-.875-.48-1.69V22.35c0-.815.16-1.378.48-1.69.321-.312.898-.468 1.73-.468h9.282zm22.862-10.634c.399 0 .598-.2.598-.598V6.75c0-.399-.199-.598-.598-.598h-8.476c-.398 0-.598.2-.598.598v2.21c0 .399.2.598.598.598h8.476zm-2.574 9.958c0 .659.221 1.205.663 1.638.442.433 1.088.84 1.937 1.222.78.347 1.495.65 2.145.91.65.26 1.34.537 2.067.832.33.139.533.386.611.741.078.355.048.715-.09 1.079a1.42 1.42 0 0 1-.716.741c-.338.165-.723.169-1.157.013-.52-.19-1.109-.42-1.768-.689a49.867 49.867 0 0 1-1.898-.819 22.72 22.72 0 0 1-1.56-.754 7.786 7.786 0 0 1-1.014-.637c-.26-.2-.455-.386-.585-.559a1.776 1.776 0 0 1-.273-.494h-.026a1.674 1.674 0 0 1-.273.52 3.35 3.35 0 0 1-.585.572c-.26.208-.602.429-1.027.663-.424.234-.949.49-1.573.767-.606.277-1.239.55-1.898.819-.658.269-1.248.498-1.768.689-.416.156-.788.147-1.118-.026a1.595 1.595 0 0 1-.728-.78 1.918 1.918 0 0 1-.117-1.066c.061-.381.265-.641.611-.78.728-.295 1.417-.572 2.067-.832a62.23 62.23 0 0 0 2.145-.91c.85-.381 1.495-.789 1.937-1.222.442-.433.663-.98.663-1.638v-.286c0-.45.16-.776.481-.975.321-.2.715-.299 1.183-.299.468 0 .863.1 1.183.299.321.2.481.524.481.975v.286z"/>
</svg>
