<svg xmlns="http://www.w3.org/2000/svg" width="288" height="28" viewBox="0 0 288 28">
    <path fill="#102F80" fill-rule="evenodd" d="M75.802 4.254c.45 0 .84.113 1.17.338.33.225.494.59.494 1.092v15.938c0 .503-.165.867-.494 1.092-.33.225-.72.338-1.17.338-.45 0-.84-.113-1.17-.338-.33-.225-.494-.59-.494-1.092V5.684c0-.503.165-.867.494-1.092.33-.225.72-.338 1.17-.338zm16.259.156c.398 0 .693.139.884.416a1.7 1.7 0 0 1 .286.988 1.7 1.7 0 0 1-.286.988c-.191.277-.486.416-.884.416h-4.472v14.404c0 .503-.165.867-.494 1.092-.33.225-.72.338-1.17.338-.451 0-.841-.113-1.17-.338-.33-.225-.494-.59-.494-1.092V7.218h-4.498c-.399 0-.694-.139-.884-.416a1.7 1.7 0 0 1-.286-.988c0-.381.095-.71.286-.988.19-.277.485-.416.884-.416H92.06zm8.935 2.366c-.399 0-.693-.139-.884-.416-.19-.277-.286-.615-.286-1.014s.095-.737.286-1.014c.19-.277.485-.416.884-.416h8.866c.832 0 1.408.156 1.729.468.32.312.481.875.481 1.69v2.08c0 .641-.035 1.261-.104 1.859-.07.598-.173 1.148-.312 1.651-.139.45-.399.758-.78.923-.381.165-.797.195-1.248.091-.416-.087-.741-.273-.975-.559-.234-.286-.299-.663-.195-1.131a14.11 14.11 0 0 0 .312-2.912v-.702c0-.399-.2-.598-.598-.598h-7.176zm16.744 2.912h2.106c.416 0 .72.139.91.416.19.277.286.615.286 1.014s-.095.741-.286 1.027c-.19.286-.494.429-.91.429h-2.106v6.942c0 .468-.165.815-.494 1.04-.33.225-.71.338-1.144.338-.433 0-.815-.113-1.144-.338-.33-.225-.494-.572-.494-1.04V4.02c0-.468.165-.815.494-1.04.33-.225.71-.338 1.144-.338.433 0 .815.113 1.144.338.33.225.494.572.494 1.04v5.668zm-.598 14.118c.399 0 .693.139.884.416a1.7 1.7 0 0 1 .286.988 1.7 1.7 0 0 1-.286.988c-.19.277-.485.416-.884.416h-13.13c-.832 0-1.408-.156-1.729-.468-.32-.312-.481-.875-.481-1.69v-3.978c0-.485.169-.84.507-1.066a2.083 2.083 0 0 1 1.183-.338c.433 0 .819.113 1.157.338.338.225.507.58.507 1.066v2.73c0 .399.2.598.598.598h11.388zm6.249-17.004c-.399 0-.69-.139-.871-.416a1.76 1.76 0 0 1-.273-.988c0-.364.09-.685.273-.962.182-.277.472-.416.87-.416h7.203c.832 0 1.408.156 1.729.468.32.312.48.875.48 1.69v3.718c0 .815-.16 1.378-.48 1.69-.321.312-.897.468-1.73.468h-4.471c-.399 0-.598.2-.598.598v1.482c0 .399.199.598.598.598.641 0 1.308-.009 2.002-.026.693-.017 1.378-.039 2.054-.065a68.212 68.212 0 0 0 3.77-.247c.398-.035.71.065.936.299.225.234.355.524.39.871.034.399-.022.754-.17 1.066-.147.312-.411.485-.792.52-1.058.121-2.366.212-3.926.273-1.56.06-3.528.091-5.902.091-.832 0-1.409-.156-1.73-.468-.32-.312-.48-.875-.48-1.69v-3.77c0-.815.16-1.378.48-1.69.321-.312.898-.468 1.73-.468h4.472c.398 0 .598-.2.598-.598V7.4c0-.399-.2-.598-.598-.598h-5.564zm17.758 12.168c0 .485-.17.84-.507 1.066a1.994 1.994 0 0 1-1.131.338c-.416 0-.793-.113-1.131-.338-.338-.225-.507-.58-.507-1.066v-5.434h-2.782c-.399 0-.68-.134-.845-.403-.165-.269-.247-.594-.247-.975s.082-.706.247-.975c.164-.269.446-.403.845-.403h2.782V8.986h-2.782c-.399 0-.68-.134-.845-.403-.165-.269-.247-.594-.247-.975s.082-.706.247-.975c.164-.269.446-.403.845-.403h2.782V4.046c0-.485.169-.84.507-1.066a1.994 1.994 0 0 1 1.13-.338c.417 0 .794.113 1.132.338.338.225.507.58.507 1.066V18.97zm-13.546 7.592c-.832 0-1.409-.156-1.73-.468-.32-.312-.48-.875-.48-1.69V20.27c0-.485.169-.84.507-1.066a2.083 2.083 0 0 1 1.183-.338c.433 0 .819.113 1.157.338.338.225.507.58.507 1.066v2.86c0 .399.199.598.598.598h11.206c.398 0 .693.139.884.416.19.277.286.615.286 1.014a1.7 1.7 0 0 1-.286.988c-.191.277-.486.416-.884.416h-12.948zm23.885-19.318c-.399 0-.693-.139-.884-.416a1.7 1.7 0 0 1-.286-.988c0-.399.095-.737.286-1.014.19-.277.485-.416.884-.416h7.826c.832 0 1.408.156 1.729.468.32.312.481.875.481 1.69v2.886c0 .728-.043 1.387-.13 1.976a6.436 6.436 0 0 1-.481 1.677 6.666 6.666 0 0 1-.975 1.547c-.416.503-.962 1.031-1.638 1.586a31.138 31.138 0 0 1-2.457 1.794 93.902 93.902 0 0 1-3.419 2.158 1.224 1.224 0 0 1-1.131.117 1.81 1.81 0 0 1-.897-.689 1.922 1.922 0 0 1-.312-1.092c0-.416.19-.745.572-.988 1.179-.71 2.188-1.339 3.029-1.885a32.942 32.942 0 0 0 2.106-1.469c.563-.433 1.005-.832 1.326-1.196a4.34 4.34 0 0 0 .728-1.105c.165-.373.269-.758.312-1.157a12.9 12.9 0 0 0 .065-1.378V7.842c0-.399-.2-.598-.598-.598h-6.136zm17.498 16.718c0 .485-.169.84-.507 1.066a2.083 2.083 0 0 1-1.183.338c-.433 0-.819-.113-1.157-.338-.338-.225-.507-.58-.507-1.066V4.046c0-.485.169-.84.507-1.066a2.038 2.038 0 0 1 1.157-.338c.45 0 .845.113 1.183.338.338.225.507.58.507 1.066v19.916zm12.567-9.269v1.443a78.706 78.706 0 0 0 4.966-.312c.398-.035.697.056.897.273.199.217.316.498.35.845.035.347-.021.663-.168.949-.148.286-.42.446-.82.481-.797.07-1.707.134-2.73.195-1.022.06-2.123.113-3.301.156a222.44 222.44 0 0 1-3.718.104c-1.3.026-2.626.039-3.978.039-.382 0-.663-.13-.845-.39a1.547 1.547 0 0 1-.273-.91c0-.347.09-.65.273-.91.182-.26.463-.39.845-.39h2.665c.875 0 1.746-.009 2.613-.026v-1.547c-1.042-.127-1.908-.387-2.6-.78-1.023-.58-1.534-1.434-1.534-2.561s.511-1.98 1.534-2.561c1.022-.58 2.426-.871 4.212-.871 1.785 0 3.189.29 4.212.871 1.022.58 1.534 1.434 1.534 2.561s-.512 1.98-1.534 2.561c-.692.393-1.559.653-2.6.78zm-69.117 2.249c-.832.07-1.75.13-2.756.182-1.005.052-2.058.1-3.159.143-1.1.043-2.236.074-3.406.091s-2.344.026-3.523.026c-.399 0-.693-.139-.884-.416a1.7 1.7 0 0 1-.286-.988c0-.381.095-.71.286-.988.19-.277.485-.416.884-.416.503 0 1.014.004 1.534.013s1.04.004 1.56-.013V10.91c0-.485.169-.84.507-1.066a1.994 1.994 0 0 1 1.131-.338c.416 0 .793.113 1.131.338.338.225.507.58.507 1.066v3.614c1.057-.035 2.102-.078 3.133-.13a95.042 95.042 0 0 0 3.107-.208c.399-.035.698.07.897.312.2.243.316.563.351.962.035.347-.026.672-.182.975-.156.303-.433.472-.832.507zm61.369-9.854c-.364 0-.633-.126-.806-.377a1.54 1.54 0 0 1-.26-.897c0-.347.086-.65.26-.91.173-.26.442-.39.806-.39h4.472V3.5c0-.45.164-.789.494-1.014.329-.225.719-.338 1.17-.338.433 0 .819.113 1.157.338.338.225.507.563.507 1.014v1.014h4.212c.364 0 .632.13.806.39.173.26.26.563.26.91 0 .347-.087.646-.26.897-.174.251-.442.377-.806.377h-12.012zm6.136 5.356c1.837 0 2.756-.364 2.756-1.092 0-.728-.919-1.092-2.756-1.092-1.838 0-2.756.364-2.756 1.092 0 .728.918 1.092 2.756 1.092zm8.788-8.398c0-.485.169-.84.507-1.066a2.038 2.038 0 0 1 1.157-.338c.416 0 .793.113 1.13.338.339.225.508.58.508 1.066v13.65c0 .485-.17.84-.507 1.066a1.994 1.994 0 0 1-1.131.338c-.434 0-.82-.113-1.157-.338-.338-.225-.507-.58-.507-1.066V4.046zm.052 19.24c0-.399-.2-.598-.598-.598h-11.778c-.382 0-.659-.13-.832-.39a1.602 1.602 0 0 1-.26-.91c0-.347.086-.654.26-.923.173-.269.45-.403.832-.403h13.416c.832 0 1.408.156 1.729.468.32.312.48.875.48 1.69v3.536c0 .468-.168.815-.506 1.04a1.994 1.994 0 0 1-1.131.338c-.399 0-.767-.113-1.105-.338-.338-.225-.507-.572-.507-1.04v-2.47zM203.089 7.27v1.924c0 .555.03 1.057.091 1.508.061.45.165.867.312 1.248.148.381.343.75.585 1.105.243.355.546.715.91 1.079.503.503.988.98 1.456 1.43.468.45.902.85 1.3 1.196.33.295.464.641.403 1.04-.06.399-.22.737-.48 1.014-.26.26-.581.429-.963.507-.381.078-.728-.022-1.04-.299a22.343 22.343 0 0 1-1.144-1.053c-.416-.407-.858-.845-1.326-1.313-.676-.676-1.126-1.192-1.352-1.547-.225-.355-.364-.654-.416-.897h-.026a2.772 2.772 0 0 1-.143.455c-.06.147-.156.32-.286.52-.13.2-.307.425-.533.676-.225.251-.502.542-.832.871-.468.468-.936.927-1.404 1.378-.468.45-.953.893-1.456 1.326a1.22 1.22 0 0 1-.546.26c-.19.035-.377.03-.559-.013a1.921 1.921 0 0 1-.52-.208 1.69 1.69 0 0 1-.845-1.391c-.017-.399.139-.745.468-1.04a49.465 49.465 0 0 0 3.068-2.912 7.62 7.62 0 0 0 .91-1.079c.243-.355.438-.724.585-1.105.148-.381.252-.797.312-1.248.061-.45.091-.953.091-1.508V7.27h-3.848c-.398 0-.693-.139-.884-.416a1.7 1.7 0 0 1-.286-.988c0-.399.096-.737.286-1.014.191-.277.486-.416.884-.416h10.868c.399 0 .694.139.884.416.191.277.286.615.286 1.014a1.7 1.7 0 0 1-.286.988c-.19.277-.485.416-.884.416h-3.64zm12.376 3.042c.416 0 .72.139.91.416.191.277.286.615.286 1.014s-.095.741-.286 1.027c-.19.286-.494.429-.91.429h-2.444v10.764c0 .485-.169.84-.507 1.066a2.038 2.038 0 0 1-1.157.338c-.433 0-.819-.113-1.157-.338-.338-.225-.507-.58-.507-1.066V4.046c0-.485.17-.84.507-1.066a2.038 2.038 0 0 1 1.157-.338c.434 0 .82.113 1.157.338.338.225.507.58.507 1.066v6.266h2.444z"/>
</svg>
