<svg xmlns="http://www.w3.org/2000/svg" xmlns:xlink="http://www.w3.org/1999/xlink" width="432" height="256" viewBox="0 0 432 256">
    <defs>
        <path id="a" d="M0 0h432v256H0z"/>
    </defs>
    <g fill="none" fill-rule="evenodd">
        <use fill="#102F80" xlink:href="#a"/>
        <path stroke="#102F80" d="M.5.5h431v255H.5z"/>
        <g>
            <path fill="#FFF" d="M24 24h384v208H24z"/>
            <path fill="#102F80" d="M41.222 205.054c0 .635.278 1.367.833 2.198.555.83 1.328 1.507 2.317 2.03l-1.148 1.288a10.897 10.897 0 0 1-1.666-1.456 9.04 9.04 0 0 1-1.232-1.652 9.093 9.093 0 0 1-1.288 1.743 10.543 10.543 0 0 1-1.848 1.533l-1.428-1.204c1.53-.803 2.543-1.703 3.038-2.702.495-.999.742-1.965.742-2.898l1.806.07c-.037.327-.063.495-.077.504-.014.01-.03.191-.049.546zm5.838-1.764v9.198h-1.624v-9.198h1.624zm.476 10.752v1.47h-8.932v-4.494h1.624v3.024h7.308zm7.145-3.122c.989 0 1.983.15 2.982.448.998.299 1.498.947 1.498 1.946 0 .99-.5 1.636-1.498 1.939-.999.303-1.998.455-2.996.455-.99 0-1.977-.152-2.961-.455-.985-.303-1.477-.95-1.477-1.939 0-.999.494-1.647 1.484-1.946.989-.299 1.978-.448 2.968-.448zm4.396-7.63v7.532h-1.638v-2.296h-2.212v-1.274h2.212v-3.962h1.638zm-9.03 5.334a5.49 5.49 0 0 0 .868-.784c.289-.317.466-.69.532-1.12H48.87v-1.316h6.72v1.316h-2.464c.065.383.228.723.49 1.022.261.299.536.541.826.728.233.15.487.292.763.427.275.135.665.25 1.169.343l-1.078 1.316a9.605 9.605 0 0 1-.91-.399 6.193 6.193 0 0 1-.728-.455 7.276 7.276 0 0 1-.75-.651 4.96 4.96 0 0 1-.566-.665c-.15.233-.334.464-.553.693-.22.229-.479.464-.777.707a5.25 5.25 0 0 1-.742.518c-.206.112-.5.257-.882.434l-1.246-1.148c.466-.14.828-.285 1.085-.434.256-.15.53-.327.819-.532zm4.102-4.914v1.19h-3.71v-1.19h3.71zm.518 10.682c.728 0 1.4-.063 2.016-.189.616-.126.924-.418.924-.875 0-.467-.308-.765-.924-.896a9.647 9.647 0 0 0-2.002-.196 9.32 9.32 0 0 0-1.988.196c-.598.13-.896.43-.896.896 0 .457.3.749.903.875a9.606 9.606 0 0 0 1.967.189zm16.426-11.102v12.474H69.47V203.29h1.624zm-10.22 1.792H67.3c0 2.473-.667 4.457-2.002 5.95-1.334 1.493-2.65 2.557-3.948 3.192l-1.33-1.302c1.41-.523 2.667-1.356 3.773-2.499 1.106-1.143 1.66-2.434 1.66-3.871h-4.579v-1.47zm12.101-.742h6.454c0 1.101-.215 2.037-.644 2.807-.43.77-.887 1.388-1.372 1.855a8.258 8.258 0 0 1-1.974 1.4c-.719.364-1.47.653-2.254.868l-1.036-1.414a10.654 10.654 0 0 0 1.981-.553 7.494 7.494 0 0 0 1.827-1.029 5.87 5.87 0 0 0 1.099-1.162c.35-.476.525-.91.525-1.302h-4.606v-1.47zm11.2 3.374v1.47h-1.596v3.738H80.94v-9.632h1.638v4.424h1.596zm-1.064 6.328v1.47h-8.666v-4.214h1.624v2.744h7.042zm7.401-7.238h-2.366v-1.26a4.132 4.132 0 0 0 1.813-.364c.546-.252.88-.672 1.001-1.26h1.274v9.8h-1.722v-6.916zm9.581-1.456H95.08v-1.428h6.622v1.33a15.705 15.705 0 0 0-2.471 3.773c-.63 1.358-1.01 2.924-1.141 4.697h-1.736c.103-1.55.504-3.05 1.204-4.501a17.125 17.125 0 0 1 2.534-3.871zm4.68 10.262h-1.917v-1.89h1.918v1.89zm3.365-8.806h-2.366v-1.26a4.132 4.132 0 0 0 1.813-.364c.546-.252.88-.672 1.001-1.26h1.274v9.8h-1.722v-6.916zm6.515 5.488h4.704v1.428h-6.594c0-.803.191-1.512.574-2.128.383-.616.9-1.143 1.554-1.582a77.891 77.891 0 0 1 1.918-1.386c.653-.457.985-1.069.994-1.834 0-.355-.103-.733-.308-1.134-.205-.401-.649-.602-1.33-.602-.616 0-1.04.236-1.274.707-.233.471-.36 1.052-.378 1.743h-1.568c0-1.083.285-1.983.854-2.702.57-.719 1.395-1.078 2.478-1.078 1.176 0 1.986.343 2.429 1.029.443.686.665 1.346.665 1.981 0 .775-.222 1.421-.665 1.939-.443.518-.94.973-1.491 1.365-.56.392-1.092.756-1.596 1.092-.504.336-.826.723-.966 1.162zm7.747 3.318h-1.918v-1.89h1.918v1.89zm2.692-3.318h4.704v1.428h-6.594c0-.803.192-1.512.574-2.128.383-.616.901-1.143 1.554-1.582a77.894 77.894 0 0 1 1.918-1.386c.654-.457.985-1.069.994-1.834 0-.355-.102-.733-.308-1.134-.205-.401-.648-.602-1.33-.602-.616 0-1.04.236-1.274.707-.233.471-.359 1.052-.378 1.743h-1.568c0-1.083.285-1.983.854-2.702.57-.719 1.396-1.078 2.478-1.078 1.176 0 1.986.343 2.43 1.029.443.686.664 1.346.664 1.981 0 .775-.221 1.421-.665 1.939-.443.518-.94.973-1.49 1.365-.56.392-1.093.756-1.597 1.092-.504.336-.826.723-.966 1.162zm8.867-8.568c.765 0 1.433.245 2.002.735.57.49.873 1.136.91 1.939h-1.568c-.037-.401-.177-.726-.42-.973s-.57-.371-.98-.371c-.868 0-1.41.399-1.624 1.197a11.666 11.666 0 0 0-.392 2.163l.028.028c.215-.383.509-.672.882-.868a2.552 2.552 0 0 1 1.204-.294c.961 0 1.71.313 2.247.938.537.625.805 1.41.805 2.352 0 .952-.294 1.748-.882 2.387-.588.64-1.367.959-2.338.959-1.419 0-2.359-.497-2.821-1.491-.462-.994-.693-2.205-.693-3.633 0-1.167.266-2.303.798-3.409.532-1.106 1.48-1.659 2.842-1.659zm-1.918 6.818c0 .532.147 1.006.441 1.421.294.415.726.623 1.295.623.57 0 .994-.21 1.274-.63.28-.42.42-.891.42-1.414 0-.523-.14-.987-.42-1.393-.28-.406-.705-.609-1.274-.609-.57 0-1.001.198-1.295.595-.294.397-.441.866-.441 1.407zm10.603-.602c.28 0 .515-.105.707-.315.191-.21.366-.422.525-.637l.504 1.176c-.215.29-.45.562-.707.819-.257.257-.605.385-1.043.385-.252 0-.49-.047-.714-.14a8.954 8.954 0 0 1-.686-.322 4.219 4.219 0 0 0-.714-.343 2.497 2.497 0 0 0-.882-.147.907.907 0 0 0-.721.315 3.33 3.33 0 0 0-.441.637l-.49-1.176c.158-.299.37-.574.637-.826.266-.252.632-.378 1.099-.378.233 0 .48.044.742.133.261.089.522.194.784.315l.756.336c.252.112.466.168.644.168zm2.594-1.12c0-1.11.21-2.238.63-3.381.42-1.143 1.321-1.715 2.702-1.715 1.391 0 2.296.572 2.716 1.715.42 1.143.63 2.27.63 3.381 0 1.11-.21 2.238-.63 3.381-.42 1.143-1.325 1.715-2.716 1.715-1.381 0-2.282-.572-2.702-1.715-.42-1.143-.63-2.27-.63-3.381zm1.568 0c0 1.017.124 1.9.371 2.646.248.747.712 1.12 1.393 1.12.691 0 1.158-.373 1.4-1.12.243-.747.364-1.629.364-2.646 0-1.027-.121-1.911-.364-2.653-.242-.742-.709-1.113-1.4-1.113-.681 0-1.145.371-1.393 1.113-.247.742-.37 1.626-.37 2.653zm8.223-2.016h-2.366v-1.26a4.132 4.132 0 0 0 1.813-.364c.546-.252.88-.672 1.001-1.26h1.274v9.8h-1.722v-6.916zm7.075 8.806h-1.918v-1.89h1.918v1.89zm3.364-8.806h-2.366v-1.26a4.132 4.132 0 0 0 1.813-.364c.546-.252.88-.672 1.001-1.26h1.274v9.8h-1.722v-6.916zm9.567 1.617v-.007.007zm0 0v.021c.541.14.97.42 1.288.84.317.42.476.938.476 1.554 0 .961-.322 1.715-.966 2.261-.644.546-1.46.819-2.45.819-.98 0-1.792-.273-2.436-.819-.644-.546-.966-1.3-.966-2.261 0-.616.159-1.134.476-1.554.317-.42.747-.7 1.288-.84v-.021.007a2.226 2.226 0 0 1-1.008-.791c-.243-.35-.364-.763-.364-1.239 0-.83.261-1.484.784-1.96s1.265-.714 2.226-.714c.97 0 1.717.238 2.24.714.523.476.784 1.13.784 1.96 0 .476-.119.889-.357 1.239-.238.35-.576.614-1.015.791v-.007zm-3.29 0v-.007.007zm-.196 2.415c0 .57.175 1.015.525 1.337.35.322.786.483 1.309.483.532 0 .973-.161 1.323-.483.35-.322.525-.768.525-1.337 0-.541-.175-.964-.525-1.267-.35-.303-.791-.455-1.323-.455-.523 0-.959.152-1.309.455-.35.303-.525.726-.525 1.267zm3.36-4.354c0-.485-.147-.856-.441-1.113-.294-.257-.656-.385-1.085-.385-.42 0-.78.128-1.078.385-.299.257-.448.628-.448 1.113 0 .457.147.812.441 1.064.294.252.656.378 1.085.378.439 0 .803-.126 1.092-.378.29-.252.434-.607.434-1.064zM39.948 117.354c.719 0 1.451.34 2.198 1.022.747.681 1.12 2.002 1.12 3.962 0 1.96-.373 3.278-1.12 3.955-.747.677-1.48 1.015-2.198 1.015-.737 0-1.48-.338-2.226-1.015-.747-.677-1.12-1.995-1.12-3.955s.373-3.28 1.12-3.962c.747-.681 1.489-1.022 2.226-1.022zm8.302 4.34v1.47h-1.722v5.6h-1.624V116.29h1.624v5.404h1.722zm-8.302 4.2c.532 0 .952-.317 1.26-.952.308-.635.462-1.503.462-2.604 0-1.11-.154-1.986-.462-2.625-.308-.64-.728-.959-1.26-.959-.541 0-.968.32-1.281.959-.313.64-.469 1.514-.469 2.625 0 1.101.156 1.97.469 2.604.313.635.74.952 1.281.952zm18.779-1.974v4.83h-1.624v-.322H51.95v.336h-1.624v-4.844h8.4zm0-7.63v7.084h-1.638v-7.084h1.638zm-8.68 5.166c.27-.187.543-.43.819-.728.275-.299.46-.649.553-1.05h-2.674v-1.358h6.972v1.358h-2.562c.084.345.25.658.497.938.247.28.506.509.777.686.233.15.485.296.756.441.27.145.658.264 1.162.357l-1.05 1.288a10.45 10.45 0 0 1-.917-.399 5.179 5.179 0 0 1-.721-.455 7.276 7.276 0 0 1-.75-.651 4.96 4.96 0 0 1-.566-.665c-.15.233-.334.464-.553.693a8.22 8.22 0 0 1-1.561 1.26c-.224.135-.542.306-.952.511l-1.246-1.232c.466-.14.847-.29 1.14-.448.295-.159.586-.34.876-.546zm4.144-4.914v1.19h-3.71v-1.19h3.71zm-2.24 10.528h5.152v-1.792H51.95v1.792zm11.19-7.266h-2.366v-1.26a4.132 4.132 0 0 0 1.813-.364c.546-.252.88-.672 1.001-1.26h1.274v9.8h-1.722v-6.916zm4.583 2.016c0-1.11.21-2.238.63-3.381.42-1.143 1.32-1.715 2.702-1.715 1.39 0 2.296.572 2.716 1.715.42 1.143.63 2.27.63 3.381 0 1.11-.21 2.238-.63 3.381-.42 1.143-1.325 1.715-2.716 1.715-1.381 0-2.282-.572-2.702-1.715-.42-1.143-.63-2.27-.63-3.381zm1.568 0c0 1.017.124 1.9.371 2.646.247.747.712 1.12 1.393 1.12.69 0 1.157-.373 1.4-1.12.243-.747.364-1.629.364-2.646 0-1.027-.121-1.911-.364-2.653s-.71-1.113-1.4-1.113c-.681 0-1.146.371-1.393 1.113-.247.742-.371 1.626-.371 2.653zm10.337-2.268c.009.915.263 1.972.763 3.171.499 1.2 1.43 2.242 2.793 3.129l-1.302 1.414c-.579-.457-1.167-1.099-1.764-1.925-.598-.826-1.032-1.594-1.302-2.303-.252.803-.714 1.624-1.386 2.464-.672.84-1.279 1.465-1.82 1.876l-1.456-1.162c1.894-1.475 3.005-2.849 3.332-4.123.326-1.274.513-2.868.56-4.781l1.708.154c-.019.383-.04.737-.063 1.064a54.75 54.75 0 0 0-.063 1.022zm5.852-3.262v12.474h-1.624V116.29h1.624zm5.926 7.378h-4.592v-1.512h4.592v1.512zm6.291.112c.243.308.597.649 1.064 1.022.467.373.929.686 1.386.938l-1.12 1.316a26.61 26.61 0 0 1-1.022-.721 7.19 7.19 0 0 1-.91-.777 11.896 11.896 0 0 1-.763-.896c-.285-.364-.488-.69-.609-.98-.13.317-.355.679-.672 1.085-.317.406-.597.735-.84.987-.28.29-.567.553-.861.791-.294.238-.604.45-.931.637l-1.218-1.246a7.62 7.62 0 0 0 1.365-.882 6.34 6.34 0 0 0 1.197-1.232c.299-.392.56-.884.784-1.477.224-.593.336-1.384.336-2.373v-.658h-2.8v-1.484h7.238v1.47l-2.772.014v.63c0 1.13.119 1.95.357 2.464.238.513.502.97.791 1.372zm4.606-7.49v12.474h-1.624v-5.922h-2.394v-1.47h2.394v-5.082h1.624zm11.989 0v6.944h-1.624v-2.114h-3.43v-1.26h3.43v-.868h-3.43v-1.26h3.43v-1.442h1.624zm-3.724 4.928l.252 1.47c-.784.121-1.816.205-3.094.252a98.63 98.63 0 0 1-3.584.07v-5.922h1.624v4.452c.55 0 1.304-.021 2.26-.063a19.635 19.635 0 0 0 2.542-.259zm3.724 2.506v5.026h-1.624v-3.556h-7.574v-1.47h9.198zm4.064-3.92h-2.366v-1.26a4.132 4.132 0 0 0 1.813-.364c.546-.252.88-.672 1.001-1.26h1.274v9.8h-1.722v-6.916zm4.583 2.016c0-1.11.21-2.238.63-3.381.42-1.143 1.32-1.715 2.702-1.715 1.39 0 2.296.572 2.716 1.715.42 1.143.63 2.27.63 3.381 0 1.11-.21 2.238-.63 3.381-.42 1.143-1.325 1.715-2.716 1.715-1.381 0-2.282-.572-2.702-1.715-.42-1.143-.63-2.27-.63-3.381zm1.568 0c0 1.017.124 1.9.371 2.646.247.747.712 1.12 1.393 1.12.69 0 1.157-.373 1.4-1.12.243-.747.364-1.629.364-2.646 0-1.027-.121-1.911-.364-2.653s-.71-1.113-1.4-1.113c-.681 0-1.146.371-1.393 1.113-.247.742-.371 1.626-.371 2.653zm10.337-2.268c.009.915.263 1.972.763 3.171.499 1.2 1.43 2.242 2.793 3.129l-1.302 1.414c-.579-.457-1.167-1.099-1.764-1.925-.598-.826-1.032-1.594-1.302-2.303-.252.803-.714 1.624-1.386 2.464-.672.84-1.279 1.465-1.82 1.876l-1.456-1.162c1.894-1.475 3.005-2.849 3.332-4.123.326-1.274.513-2.868.56-4.781l1.708.154c-.019.383-.04.737-.063 1.064a54.74 54.74 0 0 0-.063 1.022zm5.852-3.262v12.474h-1.624V116.29h1.624z"/>
            <text fill="#102F80" font-family="NanumSquareRoundEB, NanumSquareRound" font-size="20" font-weight="600" letter-spacing="-.833" transform="translate(24 24)">
                <tspan x="12" y="33">1월 둘째주</tspan>
            </text>
            <text fill="#102F80" font-family="NanumSquareRoundEB, NanumSquareRound" font-size="32" font-weight="600" letter-spacing="-1.333" transform="translate(24 24)">
                <tspan x="12" y="77">18.01.20.토</tspan>
            </text>
        </g>
    </g>
</svg>
