<svg xmlns="http://www.w3.org/2000/svg" width="288" height="28" viewBox="0 0 288 28">
    <path fill="#102F80" fill-rule="evenodd" d="M104.957 7.192c-.399 0-.598.2-.598.598v8.216c0 .399.199.598.598.598 1.612 0 3.098-.039 4.459-.117a50.2 50.2 0 0 0 3.939-.377c.398-.052.715.043.949.286.234.243.368.555.403.936.034.399-.018.75-.156 1.053-.139.303-.399.481-.78.533a49.84 49.84 0 0 1-1.794.195 75.829 75.829 0 0 1-5.11.286c-1.065.026-2.274.039-3.626.039-.832 0-1.409-.156-1.73-.468-.32-.312-.48-.875-.48-1.69V6.516c0-.815.16-1.378.48-1.69.321-.312.898-.468 1.73-.468h8.268c.398 0 .693.139.884.416.19.277.286.615.286 1.014a1.7 1.7 0 0 1-.286.988c-.191.277-.486.416-.884.416h-6.552zm14.638 16.77c0 .485-.17.84-.507 1.066a2.083 2.083 0 0 1-1.183.338c-.434 0-.82-.113-1.157-.338-.338-.225-.507-.58-.507-1.066V4.046c0-.485.169-.84.507-1.066a2.038 2.038 0 0 1 1.157-.338c.45 0 .845.113 1.183.338.338.225.507.58.507 1.066v19.916zM131.12 7.27v1.924c0 .555.03 1.057.091 1.508.061.45.165.867.312 1.248.148.381.343.75.585 1.105.243.355.546.715.91 1.079.503.503.988.98 1.456 1.43.468.45.902.85 1.3 1.196.33.295.464.641.403 1.04-.06.399-.22.737-.48 1.014-.26.26-.581.429-.963.507-.381.078-.728-.022-1.04-.299a22.344 22.344 0 0 1-1.144-1.053c-.416-.407-.858-.845-1.326-1.313-.676-.676-1.126-1.192-1.352-1.547-.225-.355-.364-.654-.416-.897h-.026a2.772 2.772 0 0 1-.143.455c-.06.147-.156.32-.286.52-.13.2-.307.425-.533.676-.225.251-.502.542-.832.871-.468.468-.936.927-1.404 1.378-.468.45-.953.893-1.456 1.326a1.22 1.22 0 0 1-.546.26c-.19.035-.377.03-.559-.013a1.921 1.921 0 0 1-.52-.208 1.69 1.69 0 0 1-.845-1.391c-.017-.399.139-.745.468-1.04a49.464 49.464 0 0 0 3.068-2.912 7.62 7.62 0 0 0 .91-1.079c.243-.355.438-.724.585-1.105.148-.381.252-.797.312-1.248.061-.45.091-.953.091-1.508V7.27h-3.848c-.398 0-.693-.139-.884-.416a1.7 1.7 0 0 1-.286-.988c0-.399.096-.737.286-1.014.191-.277.486-.416.884-.416h10.868c.399 0 .694.139.884.416.191.277.286.615.286 1.014a1.7 1.7 0 0 1-.286.988c-.19.277-.485.416-.884.416h-3.64zm12.376 3.042c.416 0 .72.139.91.416.191.277.286.615.286 1.014s-.095.741-.286 1.027c-.19.286-.494.429-.91.429h-2.444v10.764c0 .485-.169.84-.507 1.066a2.038 2.038 0 0 1-1.157.338c-.433 0-.819-.113-1.157-.338-.338-.225-.507-.58-.507-1.066V4.046c0-.485.17-.84.507-1.066a2.038 2.038 0 0 1 1.157-.338c.434 0 .82.113 1.157.338.338.225.507.58.507 1.066v6.266h2.444zm2.115 1.56c0-2.583.52-4.546 1.56-5.889s2.609-2.015 4.706-2.015c2.097 0 3.666.672 4.706 2.015 1.04 1.343 1.56 3.306 1.56 5.889s-.52 4.546-1.56 5.889-2.609 2.015-4.706 2.015c-2.097 0-3.666-.672-4.706-2.015-1.04-1.343-1.56-3.306-1.56-5.889zm9.334 0c0-1.647-.225-2.895-.676-3.744-.45-.85-1.248-1.274-2.392-1.274s-1.941.425-2.392 1.274c-.45.85-.676 2.097-.676 3.744 0 1.647.225 2.895.676 3.744.45.85 1.248 1.274 2.392 1.274s1.941-.425 2.392-1.274c.45-.85.676-2.097.676-3.744zm9.802 12.09c0 .485-.169.84-.507 1.066a2.083 2.083 0 0 1-1.183.338c-.433 0-.819-.113-1.157-.338-.338-.225-.507-.58-.507-1.066V4.046c0-.485.169-.84.507-1.066a2.038 2.038 0 0 1 1.157-.338c.45 0 .845.113 1.183.338.338.225.507.58.507 1.066v19.916zm6.119-4.498c-.832 0-1.409-.156-1.73-.468-.32-.312-.48-.875-.48-1.69V5.58c0-.485.169-.84.507-1.066a2.038 2.038 0 0 1 1.157-.338c.45 0 .845.113 1.183.338.338.225.507.58.507 1.066v10.452c0 .399.199.598.598.598 1.352 0 2.69-.039 4.017-.117a50.474 50.474 0 0 0 3.887-.377c.398-.052.715.043.949.286.234.243.368.555.403.936.034.399-.018.75-.156 1.053-.139.303-.399.481-.78.533-.538.07-1.131.134-1.781.195a72.71 72.71 0 0 1-4.927.286c-1.006.026-2.124.039-3.354.039zm7.982-7.332c-.399 0-.694-.139-.884-.416a1.7 1.7 0 0 1-.286-.988c0-.399.095-.737.286-1.014.19-.277.485-.416.884-.416h5.33V4.046c0-.485.169-.84.507-1.066a2.038 2.038 0 0 1 1.157-.338c.416 0 .793.113 1.13.338.339.225.508.58.508 1.066v19.916c0 .485-.17.84-.507 1.066a1.994 1.994 0 0 1-1.131.338c-.434 0-.82-.113-1.157-.338-.338-.225-.507-.58-.507-1.066v-11.83h-5.33z"/>
</svg>
