<svg xmlns="http://www.w3.org/2000/svg" width="300" height="400" viewBox="0 0 300 400">
    <g fill="none" fill-rule="evenodd">
        <path fill="#102F80" d="M14.184 1.23v16.038h-2.088V1.23h2.088zm-5.526 9.72c.3.42.747.879 1.341 1.377s1.167.903 1.719 1.215l-1.548 1.656a11.36 11.36 0 0 1-1.44-1.089c-.516-.45-.93-.861-1.242-1.233a11.979 11.979 0 0 1-.855-1.17 8.055 8.055 0 0 1-.693-1.26 10.824 10.824 0 0 1-1.476 2.358c-.336.408-.765.873-1.287 1.395-.522.522-.993.909-1.413 1.161L0 13.884c.552-.312 1.17-.783 1.854-1.413.684-.63 1.242-1.233 1.674-1.809.384-.492.717-1.152.999-1.98.282-.828.423-1.734.423-2.718v-.846H1.44V3.21h9.198V5.1l-3.546.018v.81c0 1.416.171 2.475.513 3.177.342.702.693 1.317 1.053 1.845zm14.928-8.1v1.71h-4.482V2.85h4.482zm2.502 2.61v1.836h-9.72V5.46h9.72zm5.292 3.402v1.89h-2.052v6.516H27.24V1.23h2.088v7.632h2.052zm-10.206-.9c1.248 0 2.244.33 2.988.99.744.66 1.116 1.512 1.116 2.556 0 1.02-.369 1.866-1.107 2.538-.738.672-1.731 1.008-2.979 1.008-1.26 0-2.259-.33-2.997-.99-.738-.66-1.107-1.512-1.107-2.556s.369-1.896 1.107-2.556c.738-.66 1.731-.99 2.979-.99zm.018 5.328c.552 0 1.035-.159 1.449-.477.414-.318.621-.747.621-1.287 0-.564-.207-1.005-.621-1.323-.414-.318-.903-.477-1.467-.477-.552 0-1.041.162-1.467.486-.426.324-.639.768-.639 1.332 0 .528.213.951.639 1.269.426.318.921.477 1.485.477zm24.198 2.25v1.53H34.356v-3.96h8.676v-1.008h-8.694v-1.53H45.12v3.888h-8.694v1.08h8.964zm-.27-14.31v8.676h-2.106V7.314h-2.826V5.676h2.826V1.23h2.106zM33.654 7.476a7.972 7.972 0 0 0 1.053-1.026c.354-.408.573-.882.657-1.422h-3.222v-1.62h8.424v1.62H37.56c.084.48.288.921.612 1.323.324.402.672.723 1.044.963l.945.585c.318.198.801.357 1.449.477l-1.242 1.62a13.768 13.768 0 0 1-1.215-.531 6.844 6.844 0 0 1-.963-.603 8.032 8.032 0 0 1-.945-.837 7.139 7.139 0 0 1-.711-.855c-.192.3-.432.597-.72.891-.288.294-.606.585-.954.873a7.625 7.625 0 0 1-1.152.801c-.36.198-.768.399-1.224.603L31.026 8.79c.6-.18 1.098-.372 1.494-.576.396-.204.774-.45 1.134-.738zm5.13-6.138v1.53h-4.77v-1.53h4.77zM9.126 121.048v11.826H1.62v-11.79l2.088.018v3.942h3.33v-3.996h2.088zm5.094-1.818v16.038h-2.088v-7.776H9.396v-1.89h2.736v-6.372h2.088zM3.69 130.984h3.312v-4.05H3.69v4.05zm21.102-9.846c-.12 1.32.444 2.538 1.692 3.654s2.742 1.89 4.482 2.322l-1.368 1.782c-1.116-.36-2.286-1.005-3.51-1.935-1.224-.93-2.028-1.827-2.412-2.691-.456.948-1.299 1.881-2.529 2.799-1.23.918-2.325 1.533-3.285 1.845l-1.62-1.746c2.448-.78 4.146-1.788 5.094-3.024.948-1.236 1.35-2.49 1.206-3.762l2.34.198a2.88 2.88 0 0 1-.054.396l-.036.162zm6.408 10.296v1.89H15.882v-1.89H31.2zM8.208 243.58c1.332 0 2.634.174 3.906.522 1.272.348 1.908 1.128 1.908 2.34 0 1.2-.636 1.962-1.908 2.286-1.272.324-2.58.486-3.924.486-1.344 0-2.655-.165-3.933-.495-1.278-.33-1.917-1.095-1.917-2.295 0-1.212.642-1.989 1.926-2.331a15.25 15.25 0 0 1 3.942-.513zm7.542-2.394v1.89H.432v-1.89h6.624v-1.458h2.088v1.458h6.606zM4.68 238.63c.42-.168.849-.375 1.287-.621.438-.246.753-.543.945-.891H2.286v-1.566h11.7v1.566h-4.59c.156.336.405.603.747.801.342.198.669.369.981.513.456.192 1.014.387 1.674.585.66.198 1.398.291 2.214.279l-1.116 1.692a9.755 9.755 0 0 1-1.764-.405 28.896 28.896 0 0 1-1.476-.513c-.3-.12-.729-.321-1.287-.603-.558-.282-.987-.603-1.287-.963-.264.372-.669.708-1.215 1.008-.546.3-.993.522-1.341.666-.444.18-.9.327-1.368.441a19.21 19.21 0 0 1-1.656.315l-1.296-1.656c.672-.012 1.335-.09 1.989-.234.654-.144 1.149-.282 1.485-.414zm6.084-4.986v1.512H5.526v-1.512h5.238zm-2.556 13.95c.852 0 1.686-.054 2.502-.162.816-.108 1.224-.438 1.224-.99 0-.576-.408-.927-1.224-1.053a16.848 16.848 0 0 0-5.04 0c-.828.126-1.242.471-1.242 1.035s.414.9 1.242 1.008c.828.108 1.674.162 2.538.162zm21.426-14.364v16.038h-2.088V233.23h2.088zm-5.526 9.72c.3.42.747.879 1.341 1.377s1.167.903 1.719 1.215l-1.548 1.656a11.36 11.36 0 0 1-1.44-1.089c-.516-.45-.93-.861-1.242-1.233a11.979 11.979 0 0 1-.855-1.17 8.055 8.055 0 0 1-.693-1.26 10.824 10.824 0 0 1-1.476 2.358c-.336.408-.765.873-1.287 1.395-.522.522-.993.909-1.413 1.161l-1.764-1.476c.552-.312 1.17-.783 1.854-1.413.684-.63 1.242-1.233 1.674-1.809.384-.492.717-1.152.999-1.98.282-.828.423-1.734.423-2.718v-.846h-3.51v-1.908h9.198v1.89l-3.546.018v.81c0 1.416.171 2.475.513 3.177.342.702.693 1.317 1.053 1.845zm14.46-1.386c.3.564.792 1.206 1.476 1.926.684.72 1.41 1.29 2.178 1.71l-1.53 1.728c-.444-.3-.981-.759-1.611-1.377s-1.101-1.137-1.413-1.557c-.252-.348-.45-.648-.594-.9a13.88 13.88 0 0 1-.522-1.044 9.21 9.21 0 0 1-.657 1.359c-.246.414-.501.789-.765 1.125-.288.372-.678.84-1.17 1.404-.492.564-.93 1.002-1.314 1.314l-1.764-1.674c.708-.456 1.416-1.059 2.124-1.809a8.867 8.867 0 0 0 1.656-2.439c.324-.732.549-1.671.675-2.817.126-1.146.189-2.463.189-3.951l2.268.198a52.533 52.533 0 0 1-.063 1.566l-.081 1.512a5.773 5.773 0 0 0 .207 1.845c.174.654.411 1.281.711 1.881zm8.1-1.854v1.89h-2.196v7.668h-2.088V233.23h2.088v6.48h2.196zM14.22 161.23v9.306h-2.088v-1.872H9.486v-1.71h2.646v-1.692H9.486v-1.71h2.646v-2.322h2.088zm-9.144 1.008c1.284 0 2.313.354 3.087 1.062.774.708 1.161 1.59 1.161 2.646 0 1.044-.39 1.908-1.17 2.592-.78.684-1.806 1.026-3.078 1.026-1.212 0-2.223-.324-3.033-.972-.81-.648-1.215-1.53-1.215-2.646 0-1.02.354-1.893 1.062-2.619.708-.726 1.77-1.089 3.186-1.089zm3.348 8.334c1.368 0 2.682.201 3.942.603 1.26.402 1.89 1.269 1.89 2.601 0 1.32-.63 2.181-1.89 2.583a12.95 12.95 0 0 1-3.96.603c-1.356 0-2.652-.201-3.888-.603-1.236-.402-1.854-1.263-1.854-2.583 0-1.332.618-2.199 1.854-2.601a12.55 12.55 0 0 1 3.906-.603zm-3.348-2.898c.732 0 1.281-.177 1.647-.531.366-.354.549-.753.549-1.197 0-.456-.183-.873-.549-1.251-.366-.378-.915-.567-1.647-.567s-1.281.189-1.647.567c-.366.378-.549.795-.549 1.251 0 .444.183.843.549 1.197.366.354.915.531 1.647.531zm3.33 7.488c.996 0 1.872-.075 2.628-.225.756-.15 1.134-.531 1.134-1.143 0-.624-.381-1.017-1.143-1.179-.762-.162-1.629-.243-2.601-.243-.984 0-1.842.081-2.574.243-.732.162-1.098.555-1.098 1.179 0 .612.369.993 1.107 1.143.738.15 1.587.225 2.547.225zm15.126-4.05c1.332 0 2.634.198 3.906.594 1.272.396 1.908 1.2 1.908 2.412 0 1.2-.636 1.986-1.908 2.358-1.272.372-2.58.558-3.924.558-1.344 0-2.655-.189-3.933-.567-1.278-.378-1.917-1.167-1.917-2.367 0-1.212.642-2.013 1.926-2.403a13.49 13.49 0 0 1 3.942-.585zm-1.026-2.79v-1.314h-4.392v-5.274h10.98v1.764h-8.892v1.746h8.946v1.764h-4.554v1.314H31.2v1.89H15.882v-1.89h6.624zm1.026 7.092c.852 0 1.686-.078 2.502-.234.816-.156 1.224-.51 1.224-1.062 0-.576-.408-.951-1.224-1.125a12.308 12.308 0 0 0-5.04 0c-.828.174-1.242.543-1.242 1.107s.414.924 1.242 1.08c.828.156 1.674.234 2.538.234zm18.222-10.494c.42.228.996.486 1.728.774.732.288 1.572.432 2.52.432l-1.188 1.764c-.852-.132-1.578-.312-2.178-.54-.6-.228-1.128-.456-1.584-.684a6.961 6.961 0 0 1-1.125-.693 5.205 5.205 0 0 1-.945-.891 4.636 4.636 0 0 1-.927.918c-.39.3-.759.54-1.107.72-.48.252-.93.456-1.35.612-.42.156-1.11.342-2.07.558l-1.35-1.746c.888 0 1.656-.108 2.304-.324a7.77 7.77 0 0 0 1.71-.792c.312-.192.609-.399.891-.621.282-.222.495-.519.639-.891H33.24v-1.782h11.556v1.782h-4.608c.192.372.45.669.774.891.324.222.588.393.792.513zm4.896 3.33v1.89h-6.606v1.062c1.212.072 2.343.324 3.393.756 1.05.432 1.575 1.188 1.575 2.268 0 1.2-.642 1.992-1.926 2.376a13.685 13.685 0 0 1-3.942.576 13.67 13.67 0 0 1-3.96-.585c-1.296-.39-1.944-1.185-1.944-2.385 0-1.032.489-1.767 1.467-2.205.978-.438 2.061-.699 3.249-.783v-1.08h-6.642v-1.89H46.65zm-7.488 7.308c.852 0 1.692-.084 2.52-.252.828-.168 1.242-.528 1.242-1.08 0-.576-.414-.957-1.242-1.143a11.462 11.462 0 0 0-2.52-.279c-.864 0-1.719.093-2.565.279-.846.186-1.269.561-1.269 1.125s.423.93 1.269 1.098c.846.168 1.701.252 2.565.252zm22.956-9.756v1.89h-2.232v2.61H57.78v-9.072h2.106v4.572h2.232zm-10.62-3.6c1.284 0 2.349.351 3.195 1.053.846.702 1.269 1.599 1.269 2.691 0 1.068-.423 1.941-1.269 2.619-.846.678-1.911 1.017-3.195 1.017-1.284 0-2.346-.342-3.186-1.026-.84-.684-1.26-1.554-1.26-2.61 0-1.092.42-1.989 1.26-2.691.84-.702 1.902-1.053 3.186-1.053zm3.114 8.262c1.428 0 2.766.219 4.014.657 1.248.438 1.872 1.317 1.872 2.637 0 1.308-.624 2.178-1.872 2.61-1.248.432-2.586.648-4.014.648a11.94 11.94 0 0 1-3.951-.648c-1.242-.432-1.863-1.302-1.863-2.61 0-1.308.621-2.184 1.863-2.628a11.649 11.649 0 0 1 3.951-.666zm-3.114-2.772c.6 0 1.146-.147 1.638-.441.492-.294.738-.729.738-1.305 0-.6-.246-1.059-.738-1.377a2.954 2.954 0 0 0-1.638-.477c-.6 0-1.143.159-1.629.477-.486.318-.729.777-.729 1.377 0 .576.243 1.011.729 1.305a3.086 3.086 0 0 0 1.629.441zm3.114 7.524c1.032 0 1.923-.096 2.673-.288.75-.192 1.125-.582 1.125-1.17s-.375-.984-1.125-1.188c-.75-.204-1.641-.306-2.673-.306-1.02 0-1.896.102-2.628.306-.732.204-1.098.6-1.098 1.188s.366.978 1.098 1.17c.732.192 1.608.288 2.628.288zm9.312-12.384h12.258c0 1.824-.075 3.432-.225 4.824-.15 1.392-.351 2.622-.603 3.69l-2.16-.306c.204-.744.372-1.746.504-3.006.132-1.26.198-2.364.198-3.312h-9.972v-1.89zm13.626 10.602v1.89H62.232v-1.89h3.636v-5.346h1.998v5.346h2.25v-5.346h1.998v5.346h5.436zm7.782-11.412v1.674h-4.428v-1.674h4.428zm2.268 2.448v1.728h-9.144v-1.728H87.6zm3.78-3.24v16.038h-2.088V161.23h2.088zm-3.204 11.664l.27 1.71c-.768.108-2.511.219-5.229.333-2.718.114-4.491.165-5.319.153l-.648-1.818c.576 0 1.392-.006 2.448-.018 1.056-.012 1.8-.024 2.232-.036v-1.332c-.6-.072-1.227-.276-1.881-.612-.654-.336-.981-.96-.981-1.872 0-1.224.528-1.953 1.584-2.187 1.056-.234 1.812-.351 2.268-.351.444 0 1.2.117 2.268.351 1.068.234 1.602.963 1.602 2.187 0 .9-.312 1.518-.936 1.854-.624.336-1.236.546-1.836.63v1.296c.708 0 1.404-.027 2.088-.081a50.343 50.343 0 0 0 2.07-.207zm-5.256-2.52a6.68 6.68 0 0 0 1.116-.126c.468-.084.702-.366.702-.846 0-.468-.234-.747-.702-.837-.468-.09-.84-.135-1.116-.135-.276 0-.645.042-1.107.126-.462.084-.693.366-.693.846 0 .468.234.747.702.837.468.09.834.135 1.098.135zM106.516 164.82v6.48h-1.404v-2.376h-1.788v-1.26h1.788v-2.844h1.404zm-4.056 3.948c.2.176.472.378.816.606a5.83 5.83 0 0 0 1.056.558l-.912 1.044a6.632 6.632 0 0 1-.846-.474 8.538 8.538 0 0 1-.834-.606 8.207 8.207 0 0 1-.522-.492 3.332 3.332 0 0 1-.498-.672 2.59 2.59 0 0 1-.444.702c-.192.22-.368.414-.528.582a6.09 6.09 0 0 1-.666.57 5.271 5.271 0 0 1-.846.51l-1.152-.936a6.982 6.982 0 0 0 1.128-.636c.344-.24.616-.468.816-.684.128-.136.3-.362.516-.678.216-.316.36-.742.432-1.278h-2.124v-1.248h5.784v1.248h-2.172c.056.448.18.824.372 1.128.192.304.4.556.624.756zm.264 2.616c.912 0 1.788.122 2.628.366.84.244 1.26.81 1.26 1.698 0 .88-.42 1.444-1.26 1.692-.84.248-1.72.372-2.64.372-.904 0-1.77-.124-2.598-.372-.828-.248-1.242-.812-1.242-1.692 0-.888.414-1.454 1.242-1.698a9.186 9.186 0 0 1 2.61-.366zm-.012 2.928c.664 0 1.248-.04 1.752-.12.504-.08.756-.324.756-.732 0-.416-.254-.666-.762-.75a10.71 10.71 0 0 0-1.734-.126c-.656 0-1.23.042-1.722.126-.492.084-.738.334-.738.75 0 .408.246.652.738.732.492.08 1.062.12 1.71.12zm13.972-5.88v1.152h-7.824v-2.868h6.24v-.732h-6.228v-1.14h7.62v2.892h-6.24v.708l6.432-.012zm1.116 1.536v1.26h-2.628v4.284h-1.392v-4.284h-2.22v4.284h-1.392v-4.284h-2.58v-1.26H117.8zm5.092 1.38a9.31 9.31 0 0 1 2.622.366c.836.244 1.254.81 1.254 1.698 0 .88-.418 1.444-1.254 1.692a9.214 9.214 0 0 1-2.634.372 8.351 8.351 0 0 1-2.532-.372c-.784-.248-1.176-.812-1.176-1.692 0-.888.392-1.454 1.176-1.698a8.52 8.52 0 0 1 2.544-.366zm5.1-3.144v1.26h-1.368v1.884h-1.404v-6.528h1.404v3.384h1.368zm-8.268.432c.152-.144.32-.372.504-.684.184-.312.308-.692.372-1.14h-2.1v-1.248h5.712v1.248h-2.196c.056.392.172.742.348 1.05.176.308.396.578.66.81.184.168.426.348.726.54.3.192.622.364.966.516l-.828 1.116a5.757 5.757 0 0 1-.798-.45 7.656 7.656 0 0 1-.774-.582 6.155 6.155 0 0 1-.522-.51 4.295 4.295 0 0 1-.486-.642 2.755 2.755 0 0 1-.468.654c-.2.212-.388.398-.564.558-.2.176-.442.364-.726.564-.284.2-.59.38-.918.54l-.924-1.08a5.172 5.172 0 0 0 1.152-.576c.36-.24.648-.468.864-.684zm3.156 5.64c.664 0 1.248-.04 1.752-.12.504-.08.756-.324.756-.732 0-.416-.252-.666-.756-.75a10.682 10.682 0 0 0-1.74-.126c-.656 0-1.208.042-1.656.126-.448.084-.672.334-.672.75 0 .408.226.652.678.732.452.08.998.12 1.638.12zm11.104-8.628v4.872h-5.016v-4.884h1.392v1.128h2.232v-1.116h1.392zm3.36-.828v7.728h-1.404v-3.792h-1.692v-1.26h1.692v-2.676h1.404zm.432 9.156v1.26h-7.644v-3.948h1.392v2.688h6.252zm-7.44-4.716h2.256v-1.236h-2.268l.012 1.236zm15.208-4.248v1.14h-3.816v-1.14h3.816zm2.4 1.608v1.152h-8.652v-1.152h8.652zm.756 6.672v1.26h-10.212v-1.26h4.416v-1.008a6.392 6.392 0 0 1-1.986-.468c-.644-.264-.966-.752-.966-1.464 0-.84.43-1.376 1.29-1.608.86-.232 1.642-.348 2.346-.348.712 0 1.498.114 2.358.342.86.228 1.29.758 1.29 1.59 0 .712-.322 1.204-.966 1.476a6.175 6.175 0 0 1-1.974.48v1.008h4.404zm-5.1-2.028c.528 0 1.038-.064 1.53-.192s.738-.376.738-.744c0-.352-.244-.588-.732-.708s-1-.18-1.536-.18c-.528 0-1.04.06-1.536.18s-.744.36-.744.72c0 .368.246.614.738.738a6.287 6.287 0 0 0 1.542.186zm9.848 1.272h4.032v1.224h-5.652c0-.688.164-1.296.492-1.824.328-.528.772-.98 1.332-1.356.536-.4 1.084-.796 1.644-1.188.56-.392.844-.916.852-1.572 0-.304-.088-.628-.264-.972-.176-.344-.556-.516-1.14-.516-.528 0-.892.202-1.092.606-.2.404-.308.902-.324 1.494h-1.344c0-.928.244-1.7.732-2.316.488-.616 1.196-.924 2.124-.924 1.008 0 1.702.294 2.082.882.38.588.57 1.154.57 1.698 0 .664-.19 1.218-.57 1.662-.38.444-.806.834-1.278 1.17-.48.336-.936.648-1.368.936-.432.288-.708.62-.828.996zm8.944-1.248c0-.656-.228-1.064-.684-1.224a3.926 3.926 0 0 0-1.488-.204v-1.02c.448.016.866-.072 1.254-.264s.582-.544.582-1.056c0-.352-.12-.638-.36-.858-.24-.22-.548-.33-.924-.33-.464 0-.812.178-1.044.534-.232.356-.344.75-.336 1.182h-1.356c.04-.816.3-1.496.78-2.04.48-.544 1.14-.816 1.98-.816.64 0 1.236.188 1.788.564.552.376.828.936.828 1.68 0 .416-.096.784-.288 1.104-.192.32-.488.552-.888.696v.024c.472.096.84.334 1.104.714.264.38.396.842.396 1.386 0 .792-.29 1.418-.87 1.878-.58.46-1.266.69-2.058.69-.96 0-1.682-.27-2.166-.81s-.734-1.246-.75-2.118h1.344c-.016.512.108.938.372 1.278.264.34.664.51 1.2.51.448 0 .824-.13 1.128-.39.304-.26.456-.63.456-1.11zm5.56-.144h-3.936v-1.296h3.936v1.296zm4.708.144c0-.656-.228-1.064-.684-1.224a3.926 3.926 0 0 0-1.488-.204v-1.02c.448.016.866-.072 1.254-.264s.582-.544.582-1.056c0-.352-.12-.638-.36-.858-.24-.22-.548-.33-.924-.33-.464 0-.812.178-1.044.534-.232.356-.344.75-.336 1.182h-1.356c.04-.816.3-1.496.78-2.04.48-.544 1.14-.816 1.98-.816.64 0 1.236.188 1.788.564.552.376.828.936.828 1.68 0 .416-.096.784-.288 1.104-.192.32-.488.552-.888.696v.024c.472.096.84.334 1.104.714.264.38.396.842.396 1.386 0 .792-.29 1.418-.87 1.878-.58.46-1.266.69-2.058.69-.96 0-1.682-.27-2.166-.81s-.734-1.246-.75-2.118h1.344c-.016.512.108.938.372 1.278.264.34.664.51 1.2.51.448 0 .824-.13 1.128-.39.304-.26.456-.63.456-1.11zm1.72-1.728c0-.952.18-1.918.54-2.898.36-.98 1.132-1.47 2.316-1.47 1.192 0 1.968.49 2.328 1.47.36.98.54 1.946.54 2.898 0 .952-.18 1.918-.54 2.898-.36.98-1.136 1.47-2.328 1.47-1.184 0-1.956-.49-2.316-1.47-.36-.98-.54-1.946-.54-2.898zm1.344 0c0 .872.106 1.628.318 2.268.212.64.61.96 1.194.96.592 0 .992-.32 1.2-.96.208-.64.312-1.396.312-2.268 0-.88-.104-1.638-.312-2.274-.208-.636-.608-.954-1.2-.954-.584 0-.982.318-1.194.954-.212.636-.318 1.394-.318 2.274zm9.508 1.128h1.056v1.08h-1.056v2.052l-1.284-.06v-1.992h-3.564v-1.356l3.564-5.052h1.284v5.328zm-1.284-3.696h-.024l-2.484 3.696h2.508v-3.696zM60.516 236.82v6.48h-1.404v-2.376h-1.788v-1.26h1.788v-2.844h1.404zm-4.056 3.948c.2.176.472.378.816.606a5.83 5.83 0 0 0 1.056.558l-.912 1.044a6.632 6.632 0 0 1-.846-.474 8.538 8.538 0 0 1-.834-.606 8.207 8.207 0 0 1-.522-.492 3.332 3.332 0 0 1-.498-.672 2.59 2.59 0 0 1-.444.702c-.192.22-.368.414-.528.582a6.09 6.09 0 0 1-.666.57 5.271 5.271 0 0 1-.846.51l-1.152-.936a6.982 6.982 0 0 0 1.128-.636c.344-.24.616-.468.816-.684.128-.136.3-.362.516-.678.216-.316.36-.742.432-1.278h-2.124v-1.248h5.784v1.248h-2.172c.056.448.18.824.372 1.128.192.304.4.556.624.756zm.264 2.616c.912 0 1.788.122 2.628.366.84.244 1.26.81 1.26 1.698 0 .88-.42 1.444-1.26 1.692-.84.248-1.72.372-2.64.372-.904 0-1.77-.124-2.598-.372-.828-.248-1.242-.812-1.242-1.692 0-.888.414-1.454 1.242-1.698a9.186 9.186 0 0 1 2.61-.366zm-.012 2.928c.664 0 1.248-.04 1.752-.12.504-.08.756-.324.756-.732 0-.416-.254-.666-.762-.75a10.71 10.71 0 0 0-1.734-.126c-.656 0-1.23.042-1.722.126-.492.084-.738.334-.738.75 0 .408.246.652.738.732.492.08 1.062.12 1.71.12zm13.972-5.88v1.152H62.86v-2.868h6.24v-.732h-6.228v-1.14h7.62v2.892h-6.24v.708l6.432-.012zm1.116 1.536v1.26h-2.628v4.284H67.78v-4.284h-2.22v4.284h-1.392v-4.284h-2.58v-1.26H71.8zm5.092 1.38a9.31 9.31 0 0 1 2.622.366c.836.244 1.254.81 1.254 1.698 0 .88-.418 1.444-1.254 1.692a9.214 9.214 0 0 1-2.634.372 8.351 8.351 0 0 1-2.532-.372c-.784-.248-1.176-.812-1.176-1.692 0-.888.392-1.454 1.176-1.698a8.52 8.52 0 0 1 2.544-.366zm5.1-3.144v1.26h-1.368v1.884H79.22v-6.528h1.404v3.384h1.368zm-8.268.432c.152-.144.32-.372.504-.684.184-.312.308-.692.372-1.14h-2.1v-1.248h5.712v1.248h-2.196c.056.392.172.742.348 1.05.176.308.396.578.66.81.184.168.426.348.726.54.3.192.622.364.966.516l-.828 1.116a5.757 5.757 0 0 1-.798-.45 7.656 7.656 0 0 1-.774-.582 6.155 6.155 0 0 1-.522-.51 4.295 4.295 0 0 1-.486-.642 2.755 2.755 0 0 1-.468.654c-.2.212-.388.398-.564.558-.2.176-.442.364-.726.564-.284.2-.59.38-.918.54l-.924-1.08a5.172 5.172 0 0 0 1.152-.576c.36-.24.648-.468.864-.684zm3.156 5.64c.664 0 1.248-.04 1.752-.12.504-.08.756-.324.756-.732 0-.416-.252-.666-.756-.75a10.682 10.682 0 0 0-1.74-.126c-.656 0-1.208.042-1.656.126-.448.084-.672.334-.672.75 0 .408.226.652.678.732.452.08.998.12 1.638.12zm11.104-8.628v4.872h-5.016v-4.884h1.392v1.128h2.232v-1.116h1.392zm3.36-.828v7.728H89.94v-3.792h-1.692v-1.26h1.692v-2.676h1.404zm.432 9.156v1.26h-7.644v-3.948h1.392v2.688h6.252zm-7.44-4.716h2.256v-1.236h-2.268l.012 1.236zm15.208-4.248v1.14h-3.816v-1.14h3.816zm2.4 1.608v1.152h-8.652v-1.152h8.652zm.756 6.672v1.26H92.488v-1.26h4.416v-1.008a6.392 6.392 0 0 1-1.986-.468c-.644-.264-.966-.752-.966-1.464 0-.84.43-1.376 1.29-1.608.86-.232 1.642-.348 2.346-.348.712 0 1.498.114 2.358.342.86.228 1.29.758 1.29 1.59 0 .712-.322 1.204-.966 1.476a6.175 6.175 0 0 1-1.974.48v1.008h4.404zm-5.1-2.028c.528 0 1.038-.064 1.53-.192s.738-.376.738-.744c0-.352-.244-.588-.732-.708s-1-.18-1.536-.18c-.528 0-1.04.06-1.536.18s-.744.36-.744.72c0 .368.246.614.738.738a6.287 6.287 0 0 0 1.542.186zm9.848 1.272h4.032v1.224h-5.652c0-.688.164-1.296.492-1.824.328-.528.772-.98 1.332-1.356.536-.4 1.084-.796 1.644-1.188.56-.392.844-.916.852-1.572 0-.304-.088-.628-.264-.972-.176-.344-.556-.516-1.14-.516-.528 0-.892.202-1.092.606-.2.404-.308.902-.324 1.494h-1.344c0-.928.244-1.7.732-2.316.488-.616 1.196-.924 2.124-.924 1.008 0 1.702.294 2.082.882.38.588.57 1.154.57 1.698 0 .664-.19 1.218-.57 1.662-.38.444-.806.834-1.278 1.17-.48.336-.936.648-1.368.936-.432.288-.708.62-.828.996zm8.944-1.248c0-.656-.228-1.064-.684-1.224a3.926 3.926 0 0 0-1.488-.204v-1.02c.448.016.866-.072 1.254-.264s.582-.544.582-1.056c0-.352-.12-.638-.36-.858-.24-.22-.548-.33-.924-.33-.464 0-.812.178-1.044.534-.232.356-.344.75-.336 1.182h-1.356c.04-.816.3-1.496.78-2.04.48-.544 1.14-.816 1.98-.816.64 0 1.236.188 1.788.564.552.376.828.936.828 1.68 0 .416-.096.784-.288 1.104-.192.32-.488.552-.888.696v.024c.472.096.84.334 1.104.714.264.38.396.842.396 1.386 0 .792-.29 1.418-.87 1.878-.58.46-1.266.69-2.058.69-.96 0-1.682-.27-2.166-.81s-.734-1.246-.75-2.118h1.344c-.016.512.108.938.372 1.278.264.34.664.51 1.2.51.448 0 .824-.13 1.128-.39.304-.26.456-.63.456-1.11zm5.56-.144h-3.936v-1.296h3.936v1.296zm4.708.144c0-.656-.228-1.064-.684-1.224a3.926 3.926 0 0 0-1.488-.204v-1.02c.448.016.866-.072 1.254-.264s.582-.544.582-1.056c0-.352-.12-.638-.36-.858-.24-.22-.548-.33-.924-.33-.464 0-.812.178-1.044.534-.232.356-.344.75-.336 1.182h-1.356c.04-.816.3-1.496.78-2.04.48-.544 1.14-.816 1.98-.816.64 0 1.236.188 1.788.564.552.376.828.936.828 1.68 0 .416-.096.784-.288 1.104-.192.32-.488.552-.888.696v.024c.472.096.84.334 1.104.714.264.38.396.842.396 1.386 0 .792-.29 1.418-.87 1.878-.58.46-1.266.69-2.058.69-.96 0-1.682-.27-2.166-.81s-.734-1.246-.75-2.118h1.344c-.016.512.108.938.372 1.278.264.34.664.51 1.2.51.448 0 .824-.13 1.128-.39.304-.26.456-.63.456-1.11zm1.72-1.728c0-.952.18-1.918.54-2.898.36-.98 1.132-1.47 2.316-1.47 1.192 0 1.968.49 2.328 1.47.36.98.54 1.946.54 2.898 0 .952-.18 1.918-.54 2.898-.36.98-1.136 1.47-2.328 1.47-1.184 0-1.956-.49-2.316-1.47-.36-.98-.54-1.946-.54-2.898zm1.344 0c0 .872.106 1.628.318 2.268.212.64.61.96 1.194.96.592 0 .992-.32 1.2-.96.208-.64.312-1.396.312-2.268 0-.88-.104-1.638-.312-2.274-.208-.636-.608-.954-1.2-.954-.584 0-.982.318-1.194.954-.212.636-.318 1.394-.318 2.274zm6.472 2.976h4.032v1.224h-5.652c0-.688.164-1.296.492-1.824.328-.528.772-.98 1.332-1.356.536-.4 1.084-.796 1.644-1.188.56-.392.844-.916.852-1.572 0-.304-.088-.628-.264-.972-.176-.344-.556-.516-1.14-.516-.528 0-.892.202-1.092.606-.2.404-.308.902-.324 1.494h-1.344c0-.928.244-1.7.732-2.316.488-.616 1.196-.924 2.124-.924 1.008 0 1.702.294 2.082.882.38.588.57 1.154.57 1.698 0 .664-.19 1.218-.57 1.662-.38.444-.806.834-1.278 1.17-.48.336-.936.648-1.368.936-.432.288-.708.62-.828.996z"/>
        <path fill="#0A901B" d="M3.132 54.804H9.18v1.836H.702c0-1.032.246-1.944.738-2.736.492-.792 1.158-1.47 1.998-2.034.804-.6 1.626-1.194 2.466-1.782.84-.588 1.266-1.374 1.278-2.358 0-.456-.132-.942-.396-1.458s-.834-.774-1.71-.774c-.792 0-1.338.303-1.638.909-.3.606-.462 1.353-.486 2.241H.936c0-1.392.366-2.55 1.098-3.474.732-.924 1.794-1.386 3.186-1.386 1.512 0 2.553.441 3.123 1.323.57.882.855 1.731.855 2.547 0 .996-.285 1.827-.855 2.493a10.627 10.627 0 0 1-1.917 1.755c-.72.504-1.404.972-2.052 1.404-.648.432-1.062.93-1.242 1.494zm17.124-11.286v1.71h-5.724v-1.71h5.724zm3.6 2.412v1.728H10.878V45.93h12.978zm1.134 10.008v1.89H9.672v-1.89h6.624v-1.512a9.588 9.588 0 0 1-2.979-.702c-.966-.396-1.449-1.128-1.449-2.196 0-1.26.645-2.064 1.935-2.412 1.29-.348 2.463-.522 3.519-.522 1.068 0 2.247.171 3.537.513 1.29.342 1.935 1.137 1.935 2.385 0 1.068-.483 1.806-1.449 2.214a9.263 9.263 0 0 1-2.961.72v1.512h6.606zm-7.65-3.042c.792 0 1.557-.096 2.295-.288.738-.192 1.107-.564 1.107-1.116 0-.528-.366-.882-1.098-1.062-.732-.18-1.5-.27-2.304-.27-.792 0-1.56.09-2.304.27-.744.18-1.116.54-1.116 1.08 0 .552.369.921 1.107 1.107a9.43 9.43 0 0 0 2.313.279zm13.848-6.498c-.096.624.3 1.503 1.188 2.637.888 1.134 1.704 1.911 2.448 2.331l-1.62 1.53a13.762 13.762 0 0 1-1.836-1.818c-.6-.708-1.074-1.386-1.422-2.034-.372.648-.9 1.38-1.584 2.196-.684.816-1.332 1.44-1.944 1.872l-1.836-1.476c1.212-.708 2.28-1.677 3.204-2.907.924-1.23 1.41-2.805 1.458-4.725l2.268.306a5.28 5.28 0 0 1-.171 1.008c-.078.264-.129.624-.153 1.08zm7.704-3.168v11.916h-2.106v-6.084h-2.952v-1.89h2.952V43.23h2.106zm.612 13.824v1.89H28.002v-5.922h2.088v4.032h9.414zM58.65 43.23v9h-2.088v-1.512H53.88v-1.71h2.682v-1.602H53.88v-1.71h2.682V43.23h2.088zm-9.144 1.17c1.236 0 2.238.333 3.006.999.768.666 1.152 1.545 1.152 2.637 0 1.068-.384 1.92-1.152 2.556-.768.636-1.77.954-3.006.954-1.248 0-2.256-.318-3.024-.954-.768-.636-1.152-1.488-1.152-2.556 0-1.092.384-1.971 1.152-2.637.768-.666 1.776-.999 3.024-.999zm9.144 8.28v6.57h-2.088v-4.68H47.22v-1.89h11.43zm-9.144-3.024c.636 0 1.146-.15 1.53-.45.384-.3.576-.69.576-1.17 0-.504-.192-.921-.576-1.251-.384-.33-.894-.495-1.53-.495-.648 0-1.164.165-1.548.495-.384.33-.576.747-.576 1.251 0 .48.192.87.576 1.17.384.3.9.45 1.548.45zm26.142-1.872v1.89h-2.232v2.412H71.31V43.23h2.106v4.554h2.232zm-8.19 0c.348.444.822.918 1.422 1.422.6.504 1.134.882 1.602 1.134l-1.638 1.62a30.198 30.198 0 0 1-1.224-.99 18.617 18.617 0 0 1-1.098-.99 11.265 11.265 0 0 1-.675-.765 6.713 6.713 0 0 1-.603-.945c-.24.408-.435.708-.585.9a9.98 9.98 0 0 1-.639.72c-.288.3-.684.663-1.188 1.089-.504.426-1.014.843-1.53 1.251l-1.746-1.62a14.146 14.146 0 0 0 1.908-1.224c.636-.48 1.14-.954 1.512-1.422.276-.36.561-.891.855-1.593.294-.702.441-1.605.441-2.709l2.304.09c-.048.42-.075.678-.081.774a2.871 2.871 0 0 1-.063.396c0 .552.081 1.053.243 1.503.162.45.423.903.783 1.359zm5.904 4.914v6.498h-2.088v-.45h-6.408v.468h-2.088v-6.516h10.584zm-8.496 4.41h6.39v-2.61h-6.39v2.61zM89.55 43.23v9h-2.088v-1.512H84.78v-1.71h2.682v-1.602H84.78v-1.71h2.682V43.23h2.088zm-9.144 1.17c1.236 0 2.238.333 3.006.999.768.666 1.152 1.545 1.152 2.637 0 1.068-.384 1.92-1.152 2.556-.768.636-1.77.954-3.006.954-1.248 0-2.256-.318-3.024-.954-.768-.636-1.152-1.488-1.152-2.556 0-1.092.384-1.971 1.152-2.637.768-.666 1.776-.999 3.024-.999zm9.144 8.28v6.57h-2.088v-4.68H78.12v-1.89h11.43zm-9.144-3.024c.636 0 1.146-.15 1.53-.45.384-.3.576-.69.576-1.17 0-.504-.192-.921-.576-1.251-.384-.33-.894-.495-1.53-.495-.648 0-1.164.165-1.548.495-.384.33-.576.747-.576 1.251 0 .48.192.87.576 1.17.384.3.9.45 1.548.45z"/>
        <path fill="#102F80" d="M.826 77.56l.966-1.316-1.526-.532.294-.91 1.526.602v-1.68h.938v1.68l1.498-.602.35.91-1.582.532.966 1.316-.728.546-.994-1.372-.924 1.372-.784-.546zm6.137 4.732h4.704v1.428H5.073c0-.803.191-1.512.574-2.128.382-.616.9-1.143 1.554-1.582a77.89 77.89 0 0 1 1.918-1.386c.653-.457.984-1.069.994-1.834 0-.355-.103-.733-.308-1.134-.206-.401-.649-.602-1.33-.602-.616 0-1.041.236-1.274.707-.234.471-.36 1.052-.378 1.743H5.255c0-1.083.284-1.983.854-2.702.569-.719 1.395-1.078 2.478-1.078 1.176 0 1.985.343 2.429 1.029.443.686.665 1.346.665 1.981 0 .775-.222 1.421-.665 1.939-.444.518-.94.973-1.491 1.365-.56.392-1.092.756-1.596 1.092-.504.336-.826.723-.966 1.162zm11.848-8.036v5.684H12.96v-5.698h1.624v1.316h2.604v-1.302h1.624zm3.92-.966v9.016h-1.638v-4.424H19.12v-1.47h1.974V73.29h1.638zm.504 10.682v1.47h-8.918v-4.606h1.624v3.136h7.294zm-8.68-5.502h2.632v-1.442h-2.646l.014 1.442zm11.247 2.31h3.416v-.574h-5.166v-1.274H35.98v1.274h-5.138v.574h3.416v2.842h-6.832v.714h7.182v1.19h-8.806v-2.842h6.832v-.714h-6.832v-1.19zm1.68-3.654c.308-.121.623-.287.945-.497.322-.21.562-.446.721-.707h-3.612v-1.218h8.988v1.218h-3.402c.13.261.32.469.567.623.247.154.502.278.763.371.355.121.76.243 1.218.364.457.121.999.168 1.624.14l-.854 1.302a8.14 8.14 0 0 1-1.295-.196 9.04 9.04 0 0 1-1.113-.322 11.296 11.296 0 0 1-.987-.476c-.425-.224-.74-.485-.945-.784-.243.327-.57.602-.98.826-.41.224-.751.387-1.022.49-.345.121-.707.226-1.085.315a9.823 9.823 0 0 1-1.309.203l-.868-1.26a14.363 14.363 0 0 0 1.519-.133c.49-.07.866-.156 1.127-.259zm4.564-3.836v1.176h-3.962V73.29h3.962zm4.023 5.446h8.218a7.9 7.9 0 0 0 .413-1.701c.088-.64.133-1.276.133-1.911h-7.35v-1.47h9.212c0 .933-.07 1.862-.21 2.786-.14.924-.29 1.69-.448 2.296h1.974v1.47h-5.152v5.558h-1.624v-5.558h-5.166v-1.47zm23.006-5.446v12.474h-1.554V73.29h1.554zm-7.854 1.932c.607 0 1.214.245 1.82.735.607.49.957 1.402 1.05 2.737h.854v-4.872H56.5v11.074h-1.554v-4.732h-.896c-.149 1.167-.513 1.97-1.092 2.408-.578.439-1.157.658-1.736.658-.644 0-1.288-.28-1.932-.84-.644-.56-.966-1.615-.966-3.164 0-1.55.322-2.604.966-3.164.644-.56 1.288-.84 1.932-.84zm0 6.538c.467 0 .791-.222.973-.665.182-.443.273-1.066.273-1.869 0-.812-.09-1.437-.273-1.876-.182-.439-.506-.658-.973-.658-.476 0-.81.222-1 .665-.192.443-.288 1.066-.288 1.869 0 .793.098 1.414.294 1.862.196.448.528.672.994.672zm17.995-3.766v1.47h-2.548v-1.47h2.548zm-4.158-1.008c-.093.924.191 2.02.854 3.29a8.673 8.673 0 0 0 2.688 3.108l-1.386 1.064c-.541-.485-1.127-1.15-1.757-1.995-.63-.845-1.062-1.589-1.295-2.233-.224.663-.618 1.412-1.183 2.247-.565.835-1.178 1.514-1.841 2.037l-1.526-.938c1.307-1.017 2.282-2.186 2.926-3.507.644-1.32.966-3.218.966-5.691l1.736.154c-.037.43-.07.856-.098 1.281-.028.425-.056.819-.084 1.183zm5.782-3.696v12.474h-1.624V73.29h1.624zm4.615 5.446h8.218a7.9 7.9 0 0 0 .413-1.701c.089-.64.133-1.276.133-1.911h-7.35v-1.47h9.212c0 .933-.07 1.862-.21 2.786-.14.924-.289 1.69-.448 2.296h1.974v1.47h-5.152v5.558h-1.624v-5.558h-5.166v-1.47zm26.092-5.446v7h-1.624v-1.176h-2.086v-1.33h2.086v-1.246h-2.086v-1.33h2.086V73.29h1.624zm-7.112.91c.961 0 1.74.259 2.338.777.597.518.896 1.202.896 2.051 0 .83-.299 1.493-.896 1.988-.598.495-1.377.742-2.338.742-.971 0-1.755-.247-2.352-.742-.598-.495-.896-1.157-.896-1.988 0-.85.298-1.533.896-2.051.597-.518 1.381-.777 2.352-.777zm7.112 6.44v5.11h-1.624v-3.64h-7.266v-1.47h8.89zm-7.112-2.352c.494 0 .891-.117 1.19-.35.298-.233.448-.537.448-.91 0-.392-.15-.716-.448-.973-.299-.257-.696-.385-1.19-.385-.504 0-.906.128-1.204.385a1.228 1.228 0 0 0-.448.973c0 .373.149.677.448.91.298.233.7.35 1.204.35zm20.332-1.456v1.47h-1.736v1.876h-1.638V73.29h1.638v3.542h1.736zm-6.37 0c.271.345.64.714 1.106 1.106.467.392.882.686 1.246.882l-1.274 1.26c-.27-.205-.588-.462-.952-.77a14.48 14.48 0 0 1-.854-.77 8.762 8.762 0 0 1-.525-.595 5.222 5.222 0 0 1-.469-.735c-.186.317-.338.55-.455.7-.116.15-.282.336-.497.56a12.53 12.53 0 0 1-.924.847c-.392.331-.788.656-1.19.973l-1.358-1.26c.495-.261.99-.579 1.484-.952.495-.373.887-.742 1.176-1.106.215-.28.437-.693.665-1.239.229-.546.343-1.248.343-2.107l1.792.07c-.037.327-.058.527-.063.602a2.233 2.233 0 0 1-.049.308c0 .43.063.819.19 1.169.125.35.328.702.608 1.057zm4.592 3.822v5.054h-1.624v-.35h-4.984v.364h-1.624v-5.068h8.232zm-6.608 3.43h4.97v-2.03h-4.97v2.03zm12.115-7.238c-.065 1.017.093 2.053.476 3.108.383 1.055 1.143 1.979 2.282 2.772l-1.246 1.218a7.288 7.288 0 0 1-1.316-1.393 10.862 10.862 0 0 1-.91-1.477c-.159.495-.453 1.04-.882 1.638-.43.597-.891 1.083-1.386 1.456l-1.358-1.064c1.241-.952 2.023-2.018 2.345-3.199.322-1.18.483-2.952.483-5.313l1.68.182c-.037.383-.068.73-.091 1.043l-.077 1.029zm7.336-3.556v12.474h-1.554V73.29h1.554zm-2.576.392V85.4h-1.554v-5.964h-1.96v-1.47h1.96v-4.284h1.554zm13.557-.042v4.788h-8.092V73.64h8.092zm1.988 5.824v1.47h-5.152v4.83h-1.624v-4.83h-5.166v-1.47H138.8zm-8.456-2.436h4.844V75.04h-4.844v1.988zm15.516-2.03c0 .467.472 1.125 1.414 1.974.943.85 2.063 1.489 3.36 1.918l-1.288 1.344c-.858-.317-1.724-.84-2.597-1.568-.872-.728-1.495-1.381-1.869-1.96-.261.55-.844 1.206-1.75 1.967-.905.76-1.759 1.281-2.562 1.561l-1.4-1.316a12.955 12.955 0 0 0 3.458-2.058c1.018-.85 1.531-1.848 1.54-2.996l1.82.196a19.55 19.55 0 0 1-.09.714l-.036.224zm4.942 7.784v1.47H138.89v-1.47h5.152v-3.15h1.624v3.15h5.138zm11.891-6.076v1.47h-1.596v2.296h-1.638V73.29h1.638v3.416h1.596zm-4.802-2.744v5.964h-6.188v-5.894h1.624v1.554h2.94v-1.624h1.624zm-.966 6.65c.999 0 1.979.156 2.94.469.961.313 1.442.959 1.442 1.939 0 .97-.483 1.615-1.449 1.932a9.386 9.386 0 0 1-2.947.476c-.99 0-1.96-.159-2.912-.476-.952-.317-1.428-.961-1.428-1.932 0-.98.476-1.626 1.428-1.939a9.32 9.32 0 0 1 2.926-.469zm-3.626-2.156h2.968v-1.4h-2.982l.014 1.4zm3.612 5.656c.728 0 1.388-.068 1.981-.203.593-.135.889-.427.889-.875 0-.457-.296-.763-.889-.917a7.818 7.818 0 0 0-1.967-.231c-.728 0-1.379.077-1.953.231-.574.154-.861.46-.861.917 0 .448.29.74.868.875a8.496 8.496 0 0 0 1.932.203zm11.68-10.654v1.12h-3.22v-1.12h3.22zm2.003 1.624v1.19h-7.434v-1.19h7.434zm4.116 3.598v1.4h-1.596v1.036h-1.624V73.29h1.624v2.8h1.596v1.386h-1.596v1.204h1.596zm-7.77-1.946c.896 0 1.626.168 2.19.504.565.336.848.821.848 1.456 0 .653-.28 1.148-.84 1.484-.56.336-1.288.504-2.184.504-.906 0-1.638-.166-2.198-.497-.56-.331-.84-.824-.84-1.477 0-.663.28-1.157.84-1.484.56-.327 1.288-.49 2.184-.49zm2.016 4.424c.98 0 1.943.14 2.89.42.948.28 1.422.9 1.422 1.862 0 .952-.474 1.57-1.421 1.855-.948.285-1.916.427-2.905.427-.971 0-1.92-.142-2.85-.427-.928-.285-1.392-.903-1.392-1.855 0-.961.464-1.582 1.393-1.862a9.864 9.864 0 0 1 2.863-.42zm-2.002-1.68c.401 0 .765-.051 1.092-.154.326-.103.49-.308.49-.616 0-.299-.164-.502-.49-.609a3.534 3.534 0 0 0-1.106-.161c-.402 0-.768.054-1.1.161-.33.107-.496.31-.496.609s.165.502.497.609a3.6 3.6 0 0 0 1.113.161zm1.988 5.012c.7 0 1.344-.063 1.932-.189.588-.126.882-.408.882-.847 0-.448-.294-.737-.882-.868a8.84 8.84 0 0 0-1.918-.196c-.7 0-1.335.065-1.904.196-.57.13-.854.42-.854.868 0 .439.284.721.854.847.569.126 1.199.189 1.89.189zm11.96-10.066c.878 0 1.834.191 2.87.574 1.036.383 1.554 1.27 1.554 2.66 0 1.363-.518 2.23-1.554 2.604-1.036.373-1.997.56-2.884.56-.877 0-1.838-.189-2.884-.567-1.045-.378-1.568-1.248-1.568-2.611 0-1.372.523-2.252 1.568-2.639 1.046-.387 2.012-.581 2.898-.581zm5.95 8.33v1.47H174.94v-1.47h11.914zm-5.95-3.402c.467 0 1.05-.082 1.75-.245.7-.163 1.05-.646 1.05-1.449s-.373-1.297-1.12-1.484c-.746-.187-1.306-.28-1.68-.28-.364 0-.928.091-1.694.273-.765.182-1.148.674-1.148 1.477s.357 1.288 1.071 1.456c.714.168 1.305.252 1.771.252zm17.967 3.458v1.47h-11.914v-1.47h5.152v-1.946l-3.388-.014v-4.228h6.608v-1.036h-6.594v-1.47h8.218v3.906h-6.608v1.358h6.818v1.484h-3.43v1.946h5.138zm8.591-.028v-2.534h-3.416v-5.81h8.47v1.47h-6.846v2.87h7.056v1.47h-3.64v2.534h5.138v1.47H202.31v-1.47h5.152zm16.917-2.254h-3.276v2.282h5.138v1.47h-11.914v-1.47h5.152v-2.282h-3.248V73.92l1.624.014v2.142h4.9v-2.184l1.624.014v6.622zm-6.538-1.47h4.886v-1.582h-4.886v1.582zm23.767-1.064v1.47h-1.736v.952h-1.624V73.29h1.624v2.24h1.736V77h-1.736v.994h1.736zm-8.33-3.85c.999 0 1.809.268 2.43.805.62.537.93 1.211.93 2.023 0 .793-.312 1.447-.938 1.96-.625.513-1.432.77-2.422.77-.942 0-1.74-.257-2.394-.77-.653-.513-.98-1.167-.98-1.96 0-.812.287-1.486.861-2.023.574-.537 1.412-.805 2.513-.805zm6.594 6.636v4.97h-1.624v-3.5h-7.154v-1.47h8.778zm-6.594-2.548c.495 0 .913-.114 1.253-.343.341-.229.511-.534.511-.917 0-.392-.17-.716-.51-.973-.341-.257-.759-.385-1.254-.385-.504 0-.926.128-1.267.385-.34.257-.51.581-.51.973 0 .373.17.677.51.91.341.233.763.35 1.267.35zm11.191-1.428h-2.366v-1.26a4.132 4.132 0 0 0 1.813-.364c.546-.252.88-.672 1.001-1.26h1.274v9.8h-1.722v-6.916zm4.583 2.016c0-1.11.21-2.238.63-3.381.42-1.143 1.32-1.715 2.702-1.715 1.39 0 2.296.572 2.716 1.715.42 1.143.63 2.27.63 3.381 0 1.11-.21 2.238-.63 3.381-.42 1.143-1.326 1.715-2.716 1.715-1.382 0-2.282-.572-2.702-1.715-.42-1.143-.63-2.27-.63-3.381zm1.568 0c0 1.017.123 1.9.37 2.646.248.747.712 1.12 1.394 1.12.69 0 1.157-.373 1.4-1.12.242-.747.364-1.629.364-2.646 0-1.027-.122-1.911-.364-2.653-.243-.742-.71-1.113-1.4-1.113-.682 0-1.146.371-1.393 1.113-.248.742-.371 1.626-.371 2.653zm15.6-5.194v4.928h-8.316V73.64h1.624v1.442h5.068v-1.456h1.624zm1.764 5.754v1.47h-4.816v2.688h-1.624V80.85h-5.488v-1.47h11.928zm-1.386 4.942l.014 1.47h-8.75v-4.396h1.624v2.926h7.112zm-7.084-7.168h5.054v-.812h-5.054v.812zM.826 295.56l.966-1.316-1.526-.532.294-.91 1.526.602v-1.68h.938v1.68l1.498-.602.35.91-1.582.532.966 1.316-.728.546-.994-1.372-.924 1.372-.784-.546zm8.489-3.64c.466 0 1.122.145 1.967.434.844.29 1.267.994 1.267 2.114 0 1.13-.423 1.83-1.267 2.1-.845.27-1.5.406-1.967.406-.476 0-1.132-.135-1.967-.406-.836-.27-1.253-.97-1.253-2.1 0-1.12.42-1.825 1.26-2.114.84-.29 1.493-.434 1.96-.434zm6.3-.63v12.474H13.99V291.29h1.624zm-2.072 6.048l.112 1.344c-.71.065-1.256.117-1.638.154-.383.037-.99.089-1.82.154v4.382H8.573v-4.256c-.71.065-1.293.112-1.75.14-.458.028-1.102.065-1.932.112l-.196-1.54c.494 0 1.122-.01 1.883-.028.76-.019 1.575-.047 2.443-.084a86.2 86.2 0 0 0 2.128-.147 117.94 117.94 0 0 0 2.394-.231zm-4.228-1.834c.41 0 .781-.077 1.113-.231.331-.154.497-.422.497-.805 0-.392-.168-.67-.504-.833a2.496 2.496 0 0 0-1.106-.245c-.402 0-.768.084-1.1.252-.33.168-.496.443-.496.826 0 .383.165.651.497.805.331.154.697.231 1.099.231zm17.663-2.8v9.198H21.14v-9.17l1.624.014v3.066h2.59v-3.108h1.624zm3.962-1.414v12.474h-1.624v-6.048h-2.128v-1.47h2.128v-4.956h1.624zm-8.19 9.142h2.576v-3.15H22.75v3.15zm16.413-7.658c-.094 1.027.345 1.974 1.316 2.842.97.868 2.132 1.47 3.486 1.806l-1.064 1.386c-.868-.28-1.778-.782-2.73-1.505-.952-.723-1.578-1.421-1.876-2.093-.355.737-1.01 1.463-1.967 2.177-.957.714-1.809 1.192-2.555 1.435l-1.26-1.358c1.904-.607 3.224-1.39 3.962-2.352.737-.961 1.05-1.937.938-2.926l1.82.154a2.24 2.24 0 0 1-.042.308l-.028.126zm4.984 8.008v1.47H32.233v-1.47h11.914zm10.868-9.492v7.56h-1.638v-2.772h-2.086v-1.47h2.086v-3.318h1.638zm-4.732 4.606c.234.205.551.441.952.707.402.266.812.483 1.232.651l-1.064 1.218a7.737 7.737 0 0 1-.987-.553 9.961 9.961 0 0 1-.973-.707 9.575 9.575 0 0 1-.609-.574 3.888 3.888 0 0 1-.58-.784c-.122.29-.295.562-.519.819-.224.257-.429.483-.616.679a7.106 7.106 0 0 1-.777.665 6.15 6.15 0 0 1-.987.595l-1.344-1.092a8.145 8.145 0 0 0 1.316-.742c.402-.28.719-.546.952-.798.15-.159.35-.422.602-.791.252-.369.42-.866.504-1.491h-2.478v-1.456h6.748v1.456h-2.534c.066.523.21.961.434 1.316.224.355.467.649.728.882zm.308 3.052c1.064 0 2.086.142 3.066.427.98.285 1.47.945 1.47 1.981 0 1.027-.49 1.685-1.47 1.974-.98.29-2.006.434-3.08.434-1.054 0-2.065-.145-3.03-.434-.967-.29-1.45-.947-1.45-1.974 0-1.036.483-1.696 1.45-1.981a10.717 10.717 0 0 1 3.044-.427zm-.014 3.416c.775 0 1.456-.047 2.044-.14.588-.093.882-.378.882-.854 0-.485-.296-.777-.889-.875a12.494 12.494 0 0 0-2.023-.147c-.765 0-1.435.049-2.009.147-.574.098-.86.39-.86.875 0 .476.286.76.86.854.574.093 1.24.14 1.995.14zm16.301-6.86v1.344H57.75v-3.346h7.28v-.854h-7.266v-1.33h8.89v3.374h-7.28v.826l7.504-.014zm1.302 1.792v1.47h-3.066v4.998H63.49v-4.998H60.9v4.998h-1.624v-4.998h-3.01v-1.47H68.18zm5.94 1.61c1.065 0 2.084.142 3.06.427.975.285 1.463.945 1.463 1.981 0 1.027-.488 1.685-1.463 1.974-.976.29-2 .434-3.073.434a9.743 9.743 0 0 1-2.954-.434c-.915-.29-1.372-.947-1.372-1.974 0-1.036.457-1.696 1.372-1.981a9.94 9.94 0 0 1 2.968-.427zm5.95-3.668v1.47h-1.595v2.198h-1.638v-7.616h1.638v3.948h1.596zm-9.645.504c.177-.168.373-.434.588-.798.214-.364.359-.807.434-1.33h-2.45v-1.456h6.664v1.456h-2.562c.065.457.2.866.406 1.225.205.36.462.674.77.945.214.196.497.406.847.63.35.224.725.425 1.127.602l-.966 1.302c-.29-.13-.6-.306-.931-.525a8.932 8.932 0 0 1-.903-.679 7.18 7.18 0 0 1-.61-.595 5.01 5.01 0 0 1-.566-.749c-.131.261-.313.516-.546.763a12.16 12.16 0 0 1-.658.651c-.234.205-.516.425-.847.658a7.78 7.78 0 0 1-1.071.63l-1.078-1.26a6.034 6.034 0 0 0 1.344-.672c.42-.28.756-.546 1.008-.798zm3.682 6.58c.774 0 1.456-.047 2.044-.14.588-.093.882-.378.882-.854 0-.485-.294-.777-.882-.875a12.462 12.462 0 0 0-2.03-.147c-.766 0-1.41.049-1.932.147-.523.098-.784.39-.784.875 0 .476.263.76.79.854.528.093 1.165.14 1.912.14zm17.168-11.032v12.474h-1.554V291.29h1.554zm-7.854 1.932c.607 0 1.214.245 1.82.735.607.49.957 1.402 1.05 2.737h.854v-4.872H88.7v11.074h-1.554v-4.732h-.896c-.149 1.167-.513 1.97-1.092 2.408-.578.439-1.157.658-1.736.658-.644 0-1.288-.28-1.932-.84-.644-.56-.966-1.615-.966-3.164 0-1.55.322-2.604.966-3.164.644-.56 1.288-.84 1.932-.84zm0 6.538c.467 0 .791-.222.973-.665.182-.443.273-1.066.273-1.869 0-.812-.09-1.437-.273-1.876-.182-.439-.506-.658-.973-.658-.476 0-.81.222-1 .665-.192.443-.288 1.066-.288 1.869 0 .793.098 1.414.294 1.862.196.448.528.672.994.672zm17.995-3.766v1.47h-2.548v-1.47h2.548zm-4.158-1.008c-.093.924.191 2.02.854 3.29a8.673 8.673 0 0 0 2.688 3.108l-1.386 1.064c-.541-.485-1.127-1.15-1.757-1.995-.63-.845-1.062-1.589-1.295-2.233-.224.663-.618 1.412-1.183 2.247-.565.835-1.178 1.514-1.841 2.037l-1.526-.938c1.307-1.017 2.282-2.186 2.926-3.507.644-1.32.966-3.218.966-5.691l1.736.154c-.037.43-.07.856-.098 1.281-.028.425-.056.819-.084 1.183zm5.782-3.696v12.474h-1.624V291.29h1.624zm9.781 9.492v-2.534h-3.416v-5.81h8.47v1.47h-6.846v2.87h7.056v1.47h-3.64v2.534h5.138v1.47H107.67v-1.47h5.152zm16.917-2.254h-3.276v2.282h5.138v1.47h-11.914v-1.47h5.152v-2.282h-3.248v-6.608l1.624.014v2.142h4.9v-2.184l1.624.014v6.622zm-6.538-1.47h4.886v-1.582H123.2v1.582zm23.767-1.064v1.47h-1.736v.952h-1.624v-7.126h1.624v2.24h1.736V295h-1.736v.994h1.736zm-8.33-3.85c.999 0 1.809.268 2.43.805.62.537.93 1.211.93 2.023 0 .793-.312 1.447-.938 1.96-.625.513-1.432.77-2.422.77-.942 0-1.74-.257-2.394-.77-.653-.513-.98-1.167-.98-1.96 0-.812.287-1.486.861-2.023.574-.537 1.412-.805 2.513-.805zm6.594 6.636v4.97h-1.624v-3.5h-7.154v-1.47h8.778zm-6.594-2.548c.495 0 .913-.114 1.253-.343.341-.229.511-.534.511-.917 0-.392-.17-.716-.51-.973-.341-.257-.759-.385-1.254-.385-.504 0-.926.128-1.267.385-.34.257-.51.581-.51.973 0 .373.17.677.51.91.341.233.763.35 1.267.35zm11.191-1.428h-2.366v-1.26a4.132 4.132 0 0 0 1.813-.364c.546-.252.88-.672 1.001-1.26h1.274v9.8h-1.722v-6.916zm4.583 2.016c0-1.11.21-2.238.63-3.381.42-1.143 1.32-1.715 2.702-1.715 1.39 0 2.296.572 2.716 1.715.42 1.143.63 2.27.63 3.381 0 1.11-.21 2.238-.63 3.381-.42 1.143-1.326 1.715-2.716 1.715-1.382 0-2.282-.572-2.702-1.715-.42-1.143-.63-2.27-.63-3.381zm1.568 0c0 1.017.123 1.9.37 2.646.248.747.712 1.12 1.394 1.12.69 0 1.157-.373 1.4-1.12.242-.747.364-1.629.364-2.646 0-1.027-.122-1.911-.364-2.653-.243-.742-.71-1.113-1.4-1.113-.682 0-1.146.371-1.393 1.113-.248.742-.371 1.626-.371 2.653zm15.6-5.194v4.928h-8.316v-4.914h1.624v1.442h5.068v-1.456h1.624zm1.764 5.754v1.47h-4.816v2.688h-1.624v-2.688h-5.488v-1.47h11.928zm-1.386 4.942l.014 1.47h-8.75v-4.396h1.624v2.926h7.112zm-7.084-7.168h5.054v-.812h-5.054v.812zm12.745-2.66c.672 0 1.344.327 2.016.98.672.653 1.008 1.941 1.008 3.864 0 1.792-.338 3.047-1.015 3.766-.677.719-1.346 1.078-2.009 1.078-.672 0-1.358-.327-2.058-.98-.7-.653-1.05-1.941-1.05-3.864 0-1.923.352-3.21 1.057-3.864.705-.653 1.388-.98 2.051-.98zm6.636-1.204v12.474h-1.624V291.29h1.624zm-6.636 9.45c.495 0 .856-.296 1.085-.889.229-.593.343-1.43.343-2.513s-.114-1.92-.343-2.513c-.229-.593-.595-.889-1.099-.889-.485 0-.856.296-1.113.889s-.385 1.426-.385 2.499c0 1.092.128 1.934.385 2.527.257.593.632.889 1.127.889zm13.71-1.358l.337 1.442c-.458.14-1.2.282-2.226.427-1.027.145-2.11.217-3.248.217v-8.022h1.624v6.496c.756 0 1.446-.063 2.072-.189.625-.126 1.106-.25 1.442-.371zm5.11-8.092v12.474h-1.553v-5.768h-1.218v5.264h-1.568v-11.55h1.568v4.816h1.218v-5.236h1.554zm3.701 12.32h-1.918v-1.89h1.918v1.89z"/>
        <path fill="#0A901B" d="M7.686 198.032H9.27v1.62H7.686v3.078l-1.926-.09v-2.988H.414v-2.034l5.346-7.578h1.926v7.992zm-1.926-5.544h-.036l-3.726 5.544H5.76v-5.544zm6.612 8.316h6.048v1.836H9.942c0-1.032.246-1.944.738-2.736.492-.792 1.158-1.47 1.998-2.034.804-.6 1.626-1.194 2.466-1.782.84-.588 1.266-1.374 1.278-2.358 0-.456-.132-.942-.396-1.458s-.834-.774-1.71-.774c-.792 0-1.338.303-1.638.909-.3.606-.462 1.353-.486 2.241h-2.016c0-1.392.366-2.55 1.098-3.474.732-.924 1.794-1.386 3.186-1.386 1.512 0 2.553.441 3.123 1.323.57.882.855 1.731.855 2.547 0 .996-.285 1.827-.855 2.493a10.627 10.627 0 0 1-1.917 1.755c-.72.504-1.404.972-2.052 1.404-.648.432-1.062.93-1.242 1.494zm10.104-7.056h-3.042v-1.62c.852.012 1.629-.144 2.331-.468.702-.324 1.131-.864 1.287-1.62h1.638v12.6h-2.214v-8.892zm9.24 0h-3.042v-1.62c.852.012 1.629-.144 2.331-.468.702-.324 1.131-.864 1.287-1.62h1.638v12.6h-2.214v-8.892z"/>
        <path fill="#0068FF" d="M7.308 270.932c0-.984-.342-1.596-1.026-1.836a5.89 5.89 0 0 0-2.232-.306v-1.53a3.864 3.864 0 0 0 1.881-.396c.582-.288.873-.816.873-1.584 0-.528-.18-.957-.54-1.287-.36-.33-.822-.495-1.386-.495-.696 0-1.218.267-1.566.801a3.071 3.071 0 0 0-.504 1.773H.774c.06-1.224.45-2.244 1.17-3.06.72-.816 1.71-1.224 2.97-1.224.96 0 1.854.282 2.682.846.828.564 1.242 1.404 1.242 2.52 0 .624-.144 1.176-.432 1.656-.288.48-.732.828-1.332 1.044v.036c.708.144 1.26.501 1.656 1.071.396.57.594 1.263.594 2.079 0 1.188-.435 2.127-1.305 2.817-.87.69-1.899 1.035-3.087 1.035-1.44 0-2.523-.405-3.249-1.215S.582 271.808.558 270.5h2.016c-.024.768.162 1.407.558 1.917s.996.765 1.8.765c.672 0 1.236-.195 1.692-.585.456-.39.684-.945.684-1.665zm4.812-1.998h-2.034l1.332-6.894h6.426v1.836H12.93l-.63 3.204.036.036a2.631 2.631 0 0 1 1.044-.711c.42-.162.834-.243 1.242-.243 1.236 0 2.193.399 2.871 1.197.678.798 1.017 1.803 1.017 3.015 0 1.008-.333 2.013-.999 3.015-.666 1.002-1.767 1.503-3.303 1.503-1.2 0-2.214-.324-3.042-.972-.828-.648-1.26-1.602-1.296-2.862h2.016c.06.672.291 1.194.693 1.566.402.372.933.558 1.593.558.864 0 1.464-.27 1.8-.81.336-.54.504-1.194.504-1.962 0-.696-.186-1.308-.558-1.836-.372-.528-.966-.792-1.782-.792-.432 0-.834.081-1.206.243-.372.162-.642.465-.81.909zm7.008-.594c0-1.428.27-2.877.81-4.347.54-1.47 1.698-2.205 3.474-2.205 1.788 0 2.952.735 3.492 2.205.54 1.47.81 2.919.81 4.347 0 1.428-.27 2.877-.81 4.347-.54 1.47-1.704 2.205-3.492 2.205-1.776 0-2.934-.735-3.474-2.205-.54-1.47-.81-2.919-.81-4.347zm2.016 0c0 1.308.159 2.442.477 3.402.318.96.915 1.44 1.791 1.44.888 0 1.488-.48 1.8-1.44.312-.96.468-2.094.468-3.402 0-1.32-.156-2.457-.468-3.411-.312-.954-.912-1.431-1.8-1.431-.876 0-1.473.477-1.791 1.431-.318.954-.477 2.091-.477 3.411zm9.06 7.11h-1.26v-2.34h2.466v2.34c-.012.732-.237 1.317-.675 1.755-.438.438-1.011.729-1.719.873v-1.098c.396-.096.696-.279.9-.549.204-.27.3-.597.288-.981zm5.694-9.702h-3.042v-1.62c.852.012 1.629-.144 2.331-.468.702-.324 1.131-.864 1.287-1.62h1.638v12.6h-2.214v-8.892zm12.93 4.284h1.584v1.62h-1.584v3.078l-1.926-.09v-2.988h-5.346v-2.034l5.346-7.578h1.926v7.992zm-1.926-5.544h-.036l-3.726 5.544h3.762v-5.544zm10.554-.612h-6.444v-1.836h8.514v1.71a20.192 20.192 0 0 0-3.177 4.851c-.81 1.746-1.299 3.759-1.467 6.039H52.65c.132-1.992.648-3.921 1.548-5.787s1.986-3.525 3.258-4.977zm4.65 11.574h-1.26v-2.34h2.466v2.34c-.012.732-.237 1.317-.675 1.755-.438.438-1.011.729-1.719.873v-1.098c.396-.096.696-.279.9-.549.204-.27.3-.597.288-.981zm4.83-2.646h6.048v1.836h-8.478c0-1.032.246-1.944.738-2.736.492-.792 1.158-1.47 1.998-2.034.804-.6 1.626-1.194 2.466-1.782.84-.588 1.266-1.374 1.278-2.358 0-.456-.132-.942-.396-1.458s-.834-.774-1.71-.774c-.792 0-1.338.303-1.638.909-.3.606-.462 1.353-.486 2.241H64.74c0-1.392.366-2.55 1.098-3.474.732-.924 1.794-1.386 3.186-1.386 1.512 0 2.553.441 3.123 1.323.57.882.855 1.731.855 2.547 0 .996-.285 1.827-.855 2.493a10.627 10.627 0 0 1-1.917 1.755c-.72.504-1.404.972-2.052 1.404-.648.432-1.062.93-1.242 1.494zm13.794-2.772h1.584v1.62H80.73v3.078l-1.926-.09v-2.988h-5.346v-2.034l5.346-7.578h1.926v7.992zm-1.926-5.544h-.036l-3.726 5.544h3.762v-5.544zm6.612 8.316h6.048v1.836h-8.478c0-1.032.246-1.944.738-2.736.492-.792 1.158-1.47 1.998-2.034.804-.6 1.626-1.194 2.466-1.782.84-.588 1.266-1.374 1.278-2.358 0-.456-.132-.942-.396-1.458s-.834-.774-1.71-.774c-.792 0-1.338.303-1.638.909-.3.606-.462 1.353-.486 2.241H83.22c0-1.392.366-2.55 1.098-3.474.732-.924 1.794-1.386 3.186-1.386 1.512 0 2.553.441 3.123 1.323.57.882.855 1.731.855 2.547 0 .996-.285 1.827-.855 2.493a10.627 10.627 0 0 1-1.917 1.755c-.72.504-1.404.972-2.052 1.404-.648.432-1.062.93-1.242 1.494zM39.484 203.45h-1.26v-2.34h2.466v2.34c-.012.732-.237 1.317-.675 1.755-.438.438-1.011.729-1.719.873v-1.098c.396-.096.696-.279.9-.549.204-.27.3-.597.288-.981zm9.384-5.418h1.584v1.62h-1.584v3.078l-1.926-.09v-2.988h-5.346v-2.034l5.346-7.578h1.926v7.992zm-1.926-5.544h-.036l-3.726 5.544h3.762v-5.544zm8.772-2.7c.984 0 1.842.315 2.574.945.732.63 1.122 1.461 1.17 2.493h-2.016c-.048-.516-.228-.933-.54-1.251-.312-.318-.732-.477-1.26-.477-1.116 0-1.812.513-2.088 1.539-.276 1.026-.444 1.953-.504 2.781l.036.036a2.745 2.745 0 0 1 1.134-1.116 3.28 3.28 0 0 1 1.548-.378c1.236 0 2.199.402 2.889 1.206.69.804 1.035 1.812 1.035 3.024 0 1.224-.378 2.247-1.134 3.069-.756.822-1.758 1.233-3.006 1.233-1.824 0-3.033-.639-3.627-1.917-.594-1.278-.891-2.835-.891-4.671 0-1.5.342-2.961 1.026-4.383.684-1.422 1.902-2.133 3.654-2.133zm-2.466 8.766c0 .684.189 1.293.567 1.827.378.534.933.801 1.665.801s1.278-.27 1.638-.81c.36-.54.54-1.146.54-1.818 0-.672-.18-1.269-.54-1.791-.36-.522-.906-.783-1.638-.783-.732 0-1.287.255-1.665.765-.378.51-.567 1.113-.567 1.809zm13.722.378c0-.984-.342-1.596-1.026-1.836a5.89 5.89 0 0 0-2.232-.306v-1.53a3.864 3.864 0 0 0 1.881-.396c.582-.288.873-.816.873-1.584 0-.528-.18-.957-.54-1.287-.36-.33-.822-.495-1.386-.495-.696 0-1.218.267-1.566.801a3.071 3.071 0 0 0-.504 1.773h-2.034c.06-1.224.45-2.244 1.17-3.06.72-.816 1.71-1.224 2.97-1.224.96 0 1.854.282 2.682.846.828.564 1.242 1.404 1.242 2.52 0 .624-.144 1.176-.432 1.656-.288.48-.732.828-1.332 1.044v.036c.708.144 1.26.501 1.656 1.071.396.57.594 1.263.594 2.079 0 1.188-.435 2.127-1.305 2.817-.87.69-1.899 1.035-3.087 1.035-1.44 0-2.523-.405-3.249-1.215s-1.101-1.869-1.125-3.177h2.016c-.024.768.162 1.407.558 1.917s.996.765 1.8.765c.672 0 1.236-.195 1.692-.585.456-.39.684-.945.684-1.665z"/>
        <path stroke="#102F80" stroke-linecap="square" d="M0 25h300M0 143h300"/>
    </g>
</svg>
