<svg xmlns="http://www.w3.org/2000/svg" width="160" height="40" viewBox="0 0 160 40">
    <path fill="#102F80" fill-rule="evenodd" d="M13.352 13.072c.4-.208.752-.256 1.056-.144.304.112.536.344.696.696.144.32.192.652.144.996-.048.344-.264.612-.648.804l-7.728 3.888v.144l7.728 3.936c.384.192.6.46.648.804.048.344 0 .684-.144 1.02-.16.352-.396.584-.708.696-.312.112-.668.064-1.068-.144L4.784 21.28c-.592-.304-.976-.592-1.152-.864-.176-.272-.264-.6-.264-.984 0-.192.02-.372.06-.54.04-.168.112-.324.216-.468.104-.144.248-.284.432-.42s.42-.284.708-.444l8.568-4.488zM28.2 15.904c.816 0 1.556.116 2.22.348.664.232 1.224.556 1.68.972.456.416.808.924 1.056 1.524s.372 1.26.372 1.98-.124 1.38-.372 1.98c-.248.6-.6 1.108-1.056 1.524-.456.416-1.016.74-1.68.972-.664.232-1.404.348-2.22.348-.816 0-1.556-.116-2.22-.348-.664-.232-1.224-.556-1.68-.972a4.206 4.206 0 0 1-1.056-1.524 5.134 5.134 0 0 1-.372-1.98c0-.72.124-1.38.372-1.98.248-.6.6-1.108 1.056-1.524.456-.416 1.016-.74 1.68-.972.664-.232 1.404-.348 2.22-.348zm-1.536-3.792v-1.656c0-.448.156-.776.468-.984A1.881 1.881 0 0 1 28.2 9.16c.4 0 .756.104 1.068.312.312.208.468.536.468.984v1.656h3.768c.368 0 .64.128.816.384.176.256.264.56.264.912s-.088.656-.264.912c-.176.256-.448.384-.816.384H22.608c-.368 0-.64-.128-.816-.384a1.57 1.57 0 0 1-.264-.912c0-.352.088-.656.264-.912.176-.256.448-.384.816-.384h4.056zM28.2 23.104c.768 0 1.384-.212 1.848-.636.464-.424.696-1.004.696-1.74s-.232-1.316-.696-1.74c-.464-.424-1.08-.636-1.848-.636s-1.384.212-1.848.636c-.464.424-.696 1.004-.696 1.74s.232 1.316.696 1.74c.464.424 1.08.636 1.848.636zM39 16.528h2.256c.384 0 .664.128.84.384.176.256.264.568.264.936 0 .368-.088.684-.264.948-.176.264-.456.396-.84.396H39v9.696c0 .448-.156.776-.468.984a1.84 1.84 0 0 1-1.044.312c-.4 0-.756-.104-1.068-.312-.312-.208-.468-.536-.468-.984V10.504c0-.448.156-.776.468-.984a1.881 1.881 0 0 1 1.068-.312c.384 0 .732.104 1.044.312.312.208.468.536.468.984v6.024zm8.216 4.104c-.768 0-1.3-.144-1.596-.432-.296-.288-.444-.808-.444-1.56v-2.496c0-.752.148-1.272.444-1.56.296-.288.828-.432 1.596-.432h9.264c.368 0 .552-.184.552-.552v-.456c0-.368-.184-.552-.552-.552H46.208c-.368 0-.64-.128-.816-.384a1.49 1.49 0 0 1-.264-.864c0-.32.088-.608.264-.864.176-.256.448-.384.816-.384h11.808c.768 0 1.3.144 1.596.432.296.288.444.808.444 1.56v2.472c0 .752-.148 1.272-.444 1.56-.296.288-.828.432-1.596.432h-9.264c-.368 0-.552.184-.552.552v.48c0 .368.184.552.552.552h10.704c.368 0 .64.128.816.384.176.256.264.544.264.864 0 .32-.088.608-.264.864-.176.256-.448.384-.816.384h-12.24zm6.96 4.176v5.76c0 .448-.156.776-.468.984a1.881 1.881 0 0 1-1.068.312c-.4 0-.756-.104-1.068-.312-.312-.208-.468-.536-.468-.984v-5.76h-7.536c-.368 0-.64-.128-.816-.384a1.57 1.57 0 0 1-.264-.912c0-.336.088-.632.264-.888.176-.256.448-.384.816-.384h18.144c.368 0 .64.128.816.384.176.256.264.552.264.888 0 .352-.088.656-.264.912-.176.256-.448.384-.816.384h-7.536zm20.456-5.376c0 .752-.148 1.272-.444 1.56-.296.288-.828.432-1.596.432H66.04c-.768 0-1.3-.144-1.596-.432-.296-.288-.444-.808-.444-1.56v-6.864c0-.752.148-1.272.444-1.56.296-.288.828-.432 1.596-.432h6.552c.768 0 1.3.144 1.596.432.296.288.444.808.444 1.56v6.864zm-3.024-5.736c0-.368-.184-.552-.552-.552h-3.48c-.368 0-.552.184-.552.552v4.608c0 .368.184.552.552.552h3.48c.368 0 .552-.184.552-.552v-4.608zm11.328 1.512c.384 0 .664.128.84.384.176.256.264.568.264.936 0 .368-.088.684-.264.948-.176.264-.456.396-.84.396H80.68v6.408c0 .448-.156.776-.468.984a1.881 1.881 0 0 1-1.068.312c-.4 0-.756-.104-1.068-.312-.312-.208-.468-.536-.468-.984V10.504c0-.448.156-.776.468-.984a1.881 1.881 0 0 1 1.068-.312c.4 0 .756.104 1.068.312.312.208.468.536.468.984v4.704h2.256zm11.219 1.224h1.893v-5.784c0-.416.144-.72.432-.912.288-.192.616-.288.984-.288.352 0 .672.096.96.288.288.192.432.496.432.912v17.328c0 .416-.144.72-.432.912a1.693 1.693 0 0 1-.96.288c-.368 0-.696-.096-.984-.288-.288-.192-.432-.496-.432-.912v-8.952h-1.893c-.125 1.705-.51 3.04-1.155 4.008-.8 1.2-2.064 1.8-3.792 1.8-1.728 0-2.992-.6-3.792-1.8-.8-1.2-1.2-2.968-1.2-5.304 0-2.336.4-4.104 1.2-5.304.8-1.2 2.064-1.8 3.792-1.8 1.728 0 2.992.6 3.792 1.8.645.967 1.03 2.303 1.155 4.008zM68.512 31.288c-.768 0-1.3-.144-1.596-.432-.296-.288-.444-.808-.444-1.56V24.76c0-.448.156-.776.468-.984a1.922 1.922 0 0 1 1.092-.312c.4 0 .756.104 1.068.312.312.208.468.536.468.984v3.36c0 .368.184.552.552.552h10.008c.368 0 .64.128.816.384.176.256.264.568.264.936 0 .352-.088.656-.264.912-.176.256-.448.384-.816.384H68.512zm31.904-20.88c0-.416.144-.72.432-.912.288-.192.616-.288.984-.288s.696.096.984.288c.288.192.432.496.432.912v18.576c0 .416-.144.72-.432.912a1.733 1.733 0 0 1-.984.288c-.368 0-.696-.096-.984-.288-.288-.192-.432-.496-.432-.912V10.408zm7.04 14.904c.544 0 .996.18 1.356.54.36.36.54.812.54 1.356s-.18.996-.54 1.356c-.36.36-.812.54-1.356.54s-.996-.18-1.356-.54c-.36-.36-.54-.812-.54-1.356s.18-.996.54-1.356c.36-.36.812-.54 1.356-.54zm8.888-8.832c-1.712 0-2.972-.3-3.78-.9-.808-.6-1.212-1.428-1.212-2.484s.404-1.884 1.212-2.484c.808-.6 2.068-.9 3.78-.9 1.712 0 2.972.3 3.78.9.808.6 1.212 1.428 1.212 2.484s-.404 1.884-1.212 2.484c-.808.6-2.068.9-3.78.9zm0-4.512c-.816 0-1.396.108-1.74.324-.344.216-.516.484-.516.804 0 .32.172.588.516.804.344.216.924.324 1.74.324s1.396-.108 1.74-.324c.344-.216.516-.484.516-.804 0-.32-.172-.588-.516-.804-.344-.216-.924-.324-1.74-.324zm9.288 10.056c0 .384-.136.664-.408.84-.272.176-.6.264-.984.264-.304 0-.572-.052-.804-.156a1.03 1.03 0 0 1-.516-.492h-2.4c-.32 0-.556-.112-.708-.336a1.376 1.376 0 0 1-.228-.792c0-.32.076-.588.228-.804.152-.216.388-.324.708-.324h2.328v-9.696c0-.416.144-.72.432-.912.288-.192.608-.288.96-.288s.672.096.96.288c.288.192.432.496.432.912v11.496zm4.176.12c0 .384-.136.664-.408.84-.272.176-.608.264-1.008.264-.384 0-.712-.088-.984-.264-.272-.176-.408-.456-.408-.84V10.408c0-.416.144-.72.432-.912.288-.192.608-.288.96-.288.368 0 .696.096.984.288.288.192.432.496.432.912v11.736zm-18.6-4.752c1.744 0 3.46-.024 5.148-.072a54.18 54.18 0 0 0 4.62-.312c.368-.032.648.06.84.276.192.216.304.484.336.804a1.48 1.48 0 0 1-.168.876c-.144.264-.4.412-.768.444-.48.064-1.008.116-1.584.156-.576.04-1.2.076-1.872.108v2.28c0 .448-.156.776-.468.984a1.802 1.802 0 0 1-1.02.312c-.368 0-.708-.104-1.02-.312-.312-.208-.468-.536-.468-.984v-2.16a122.238 122.238 0 0 1-3.576.048c-.368 0-.64-.124-.816-.372a1.435 1.435 0 0 1-.264-.852c0-.32.088-.604.264-.852.176-.248.448-.372.816-.372zm5.952 8.376h9.672v-.624c0-.416.156-.728.468-.936a1.802 1.802 0 0 1 1.02-.312c.368 0 .708.104 1.02.312.312.208.468.52.468.936v4.368c0 .752-.148 1.272-.444 1.56-.296.288-.828.432-1.596.432h-11.544c-.768 0-1.3-.144-1.596-.432-.296-.288-.444-.808-.444-1.56v-4.368c0-.416.156-.728.468-.936a1.802 1.802 0 0 1 1.02-.312c.368 0 .708.104 1.02.312.312.208.468.52.468.936v.624zm0 3.072c0 .192.096.288.288.288h9.096c.192 0 .288-.096.288-.288v-.744h-9.672v.744zm27.4-19.992c.352.096.624.288.816.576.192.288.224.616.096.984L138.656 30.4c-.144.416-.388.676-.732.78-.344.104-.7.1-1.068-.012a1.347 1.347 0 0 1-.804-.564c-.184-.28-.212-.612-.084-.996l6.792-19.992c.144-.416.388-.676.732-.78.344-.104.7-.1 1.068.012zM157 17.56c.288.16.524.308.708.444.184.136.328.276.432.42.104.144.176.3.216.468.04.168.06.348.06.54 0 .384-.088.712-.264.984-.176.272-.56.56-1.152.864l-8.544 4.488c-.4.208-.756.256-1.068.144-.312-.112-.548-.344-.708-.696a1.885 1.885 0 0 1-.144-1.02c.048-.344.264-.612.648-.804l7.728-3.936v-.144l-7.728-3.888c-.384-.192-.6-.46-.648-.804-.048-.344 0-.676.144-.996.16-.352.392-.584.696-.696.304-.112.656-.064 1.056.144L157 17.56zm-67.792-4.272c.816 0 1.392.368 1.728 1.104.336.736.504 1.848.504 3.336 0 1.488-.168 2.6-.504 3.336-.336.736-.912 1.104-1.728 1.104s-1.392-.368-1.728-1.104c-.336-.736-.504-1.848-.504-3.336 0-1.488.168-2.6.504-3.336.336-.736.912-1.104 1.728-1.104z"/>
</svg>
