<svg xmlns="http://www.w3.org/2000/svg" width="100" height="40" viewBox="0 0 100 40">
    <path fill="#E5E5E5" fill-rule="evenodd" d="M7.183 15.64c.819 0 1.562.116 2.228.348.667.233 1.229.558 1.686.976.458.418.811.927 1.06 1.53.25.602.374 1.264.374 1.987 0 .723-.125 1.385-.374 1.987a4.222 4.222 0 0 1-1.06 1.53c-.457.418-1.02.743-1.686.976-.666.233-1.41.349-2.228.349-.82 0-1.562-.116-2.228-.35-.667-.232-1.229-.557-1.687-.975a4.222 4.222 0 0 1-1.06-1.53 5.154 5.154 0 0 1-.373-1.987c0-.723.124-1.385.373-1.987a4.222 4.222 0 0 1 1.06-1.53c.458-.418 1.02-.743 1.687-.976.666-.232 1.409-.349 2.228-.349zM5.64 11.832v-1.662c0-.45.157-.78.47-.988.313-.209.67-.313 1.072-.313.401 0 .759.104 1.072.313.313.209.47.538.47.988v1.662h3.782c.369 0 .642.128.819.385.176.257.265.562.265.916 0 .353-.089.658-.265.915-.177.257-.45.386-.82.386H1.57c-.37 0-.642-.129-.819-.386a1.576 1.576 0 0 1-.265-.915c0-.354.088-.659.265-.916.177-.257.45-.385.819-.385h4.071zm1.542 11.033c.77 0 1.389-.213 1.855-.638.465-.426.698-1.008.698-1.747 0-.739-.233-1.32-.698-1.746-.466-.426-1.084-.639-1.855-.639-.771 0-1.39.213-1.855.639-.466.425-.699 1.007-.699 1.746 0 .739.233 1.32.699 1.747.466.425 1.084.638 1.855.638zm10.84-6.6h2.264c.386 0 .667.128.844.385.176.257.265.57.265.94 0 .369-.089.686-.265.95-.177.266-.458.398-.844.398h-2.264v9.732c0 .45-.157.78-.47.988a1.848 1.848 0 0 1-1.048.313c-.401 0-.758-.104-1.072-.313-.313-.209-.47-.538-.47-.988V10.22c0-.45.157-.779.47-.988.314-.208.67-.313 1.072-.313.386 0 .735.105 1.048.313.313.21.47.538.47.988v6.046zm8.239 4.119c-.771 0-1.305-.145-1.602-.434-.297-.289-.446-.81-.446-1.566V15.88c0-.755.149-1.277.446-1.566.297-.289.83-.433 1.602-.433h9.298c.37 0 .554-.185.554-.554v-.458c0-.37-.185-.554-.554-.554H25.25c-.37 0-.643-.129-.82-.386a1.495 1.495 0 0 1-.264-.867c0-.321.088-.61.265-.867.176-.257.45-.386.819-.386h11.852c.77 0 1.305.145 1.602.434.297.29.445.811.445 1.566v2.481c0 .755-.148 1.277-.445 1.566-.297.289-.831.434-1.602.434h-9.299c-.37 0-.554.184-.554.554v.481c0 .37.185.554.554.554h10.744c.37 0 .642.129.82.386.176.257.264.546.264.867 0 .321-.088.61-.265.867-.177.257-.45.386-.819.386H26.262zm6.985 4.191v5.782c0 .45-.156.779-.47.987-.312.21-.67.313-1.071.313-.402 0-.76-.104-1.072-.313-.313-.208-.47-.538-.47-.987v-5.782H22.6c-.37 0-.642-.128-.82-.385a1.576 1.576 0 0 1-.264-.916c0-.337.088-.634.265-.89.177-.258.45-.386.819-.386h18.211c.37 0 .643.128.82.385.176.257.265.554.265.891 0 .354-.089.659-.265.916-.177.257-.45.385-.82.385h-7.564zm20.525-5.396c0 .755-.149 1.277-.446 1.566-.297.29-.831.434-1.602.434h-6.576c-.771 0-1.305-.145-1.602-.434-.297-.289-.446-.811-.446-1.566v-6.89c0-.754.149-1.276.446-1.565.297-.29.83-.434 1.602-.434h6.576c.77 0 1.305.145 1.602.434.297.289.446.81.446 1.566v6.89zm-3.036-5.757c0-.37-.184-.554-.554-.554H46.69c-.37 0-.554.185-.554.554v4.625c0 .37.185.554.554.554h3.493c.37 0 .554-.185.554-.554v-4.625zm11.37 1.518c.386 0 .667.128.844.385.176.257.265.57.265.94 0 .369-.089.686-.265.95-.177.266-.458.398-.844.398h-2.264v6.432c0 .45-.157.78-.47.988-.313.209-.67.313-1.072.313-.401 0-.758-.104-1.072-.313-.313-.209-.47-.538-.47-.988V10.22c0-.45.157-.779.47-.988.314-.208.67-.313 1.072-.313s.76.105 1.072.313c.313.21.47.538.47.988v4.722h2.264zm11.253 1.228h1.9v-5.805c0-.418.145-.723.434-.916.289-.193.618-.289.987-.289a1.7 1.7 0 0 1 .964.29c.29.192.434.497.434.915v17.392c0 .418-.145.723-.434.915a1.7 1.7 0 0 1-.964.29 1.74 1.74 0 0 1-.987-.29c-.29-.192-.434-.497-.434-.915v-8.985h-1.9c-.126 1.711-.512 3.052-1.16 4.023-.802 1.204-2.07 1.806-3.805 1.806-1.735 0-3.003-.602-3.806-1.806-.803-1.205-1.205-2.98-1.205-5.324 0-2.345.402-4.12 1.205-5.324.803-1.204 2.071-1.807 3.806-1.807 1.734 0 3.003.603 3.806 1.807.647.97 1.033 2.312 1.159 4.023zM47.629 31.08c-.771 0-1.305-.144-1.602-.433-.297-.29-.446-.811-.446-1.566v-4.553c0-.45.157-.779.47-.988a1.93 1.93 0 0 1 1.096-.313c.401 0 .759.105 1.072.313.313.21.47.538.47.988v3.373c0 .369.184.554.554.554h10.045c.37 0 .642.128.819.385.177.257.265.57.265.94 0 .353-.088.658-.265.915-.177.257-.45.385-.819.385h-11.66zm32.014-20.957c0-.418.145-.723.434-.916.29-.192.618-.289.988-.289s.698.097.987.29c.29.192.434.497.434.915v18.645c0 .417-.145.722-.434.915a1.74 1.74 0 0 1-.987.29 1.74 1.74 0 0 1-.988-.29c-.289-.193-.434-.498-.434-.915V10.123zm-11.25 2.89c.82 0 1.398.37 1.735 1.108.337.74.506 1.855.506 3.349 0 1.493-.169 2.61-.506 3.348-.337.739-.915 1.108-1.734 1.108-.82 0-1.397-.369-1.735-1.108-.337-.738-.506-1.855-.506-3.348 0-1.494.17-2.61.506-3.349.338-.738.916-1.108 1.735-1.108z"/>
</svg>
