<svg xmlns="http://www.w3.org/2000/svg" width="100" height="40" viewBox="0 0 100 40">
    <path fill="#DDD" fill-rule="evenodd" d="M6.94 18.56c-1.627 0-2.847-.313-3.66-.94-.813-.627-1.22-1.467-1.22-2.52s.407-1.893 1.22-2.52 2.033-.94 3.66-.94c1.627 0 2.847.313 3.66.94.813.627 1.22 1.467 1.22 2.52s-.407 1.893-1.22 2.52-2.033.94-3.66.94zm0-2c.853 0 1.48-.13 1.88-.39.4-.26.6-.617.6-1.07 0-.453-.2-.81-.6-1.07-.4-.26-1.027-.39-1.88-.39s-1.48.13-1.88.39c-.4.26-.6.617-.6 1.07 0 .453.2.81.6 1.07.4.26 1.027.39 1.88.39zm6.84 7.52h-2.7c-.293 0-.51-.1-.65-.3-.14-.2-.21-.44-.21-.72 0-.28.07-.52.21-.72.14-.2.357-.3.65-.3h2.7v-9.62c0-.373.13-.647.39-.82.26-.173.557-.26.89-.26.32 0 .61.087.87.26.26.173.39.447.39.82V24.5c0 .373-.13.647-.39.82-.26.173-.55.26-.87.26-.333 0-.63-.087-.89-.26-.26-.173-.39-.447-.39-.82v-.42zM1.74 21.64c-.307 0-.53-.103-.67-.31a1.306 1.306 0 0 1-.21-.75c0-.293.07-.543.21-.75.14-.207.363-.31.67-.31 1.613 0 3.307-.027 5.08-.08a59.595 59.595 0 0 0 5.2-.38c.307-.04.54.033.7.22.16.187.253.427.28.72.027.28-.02.53-.14.75-.12.22-.333.35-.64.39-.587.08-1.233.15-1.94.21-.707.06-1.453.11-2.24.15v1.94c0 .347-.123.597-.37.75-.247.153-.55.23-.91.23-.347 0-.643-.077-.89-.23-.247-.153-.37-.403-.37-.75V21.6c-.64.027-1.273.04-1.9.04H1.74zm14.12 5.98c.307 0 .533.107.68.32.147.213.22.467.22.76s-.073.547-.22.76c-.147.213-.373.32-.68.32H5.4c-.64 0-1.083-.12-1.33-.36-.247-.24-.37-.673-.37-1.3v-2.34c0-.373.13-.647.39-.82.26-.173.563-.26.91-.26.333 0 .63.087.89.26.26.173.39.447.39.82v1.38c0 .307.153.46.46.46h9.12zm5.147-6.02c0 .307.153.46.46.46.666 0 1.386-.02 2.16-.06.773-.04 1.48-.107 2.12-.2.306-.04.546.03.72.21.173.18.273.423.3.73a1.54 1.54 0 0 1-.12.8c-.107.227-.307.367-.6.42-.427.067-1.127.13-2.1.19-.974.06-2.24.09-3.8.09-.64 0-1.084-.12-1.33-.36-.247-.24-.37-.673-.37-1.3v-8.12c0-.627.123-1.06.37-1.3.246-.24.69-.36 1.33-.36h5.06c.306 0 .533.107.68.32.146.213.22.473.22.78 0 .293-.074.547-.22.76-.147.213-.374.32-.68.32h-3.74c-.307 0-.46.153-.46.46v6.16zm10.54-9.26c0-.347.12-.6.36-.76.24-.16.513-.24.82-.24.306 0 .58.08.82.24.24.16.36.413.36.76v15.48c0 .347-.12.6-.36.76-.24.16-.514.24-.82.24-.307 0-.58-.08-.82-.24-.24-.16-.36-.413-.36-.76V12.34zm-3.64 7.06h-2.42c-.307 0-.534-.107-.68-.32a1.308 1.308 0 0 1-.22-.76c0-.307.073-.567.22-.78.146-.213.373-.32.68-.32h2.42v-4.68c0-.347.12-.6.36-.76.24-.16.513-.24.82-.24.293 0 .56.08.8.24.24.16.36.413.36.76v14.44c0 .347-.12.6-.36.76-.24.16-.507.24-.8.24-.307 0-.58-.08-.82-.24-.24-.16-.36-.413-.36-.76V19.4zm8.066-.96c0-1.987.4-3.497 1.2-4.53.8-1.033 2.007-1.55 3.62-1.55 1.614 0 2.82.517 3.62 1.55.8 1.033 1.2 2.543 1.2 4.53s-.4 3.497-1.2 4.53c-.8 1.033-2.006 1.55-3.62 1.55-1.613 0-2.82-.517-3.62-1.55-.8-1.033-1.2-2.543-1.2-4.53zm7.18 0c0-1.267-.173-2.227-.52-2.88-.346-.653-.96-.98-1.84-.98-.88 0-1.493.327-1.84.98-.346.653-.52 1.613-.52 2.88s.174 2.227.52 2.88c.347.653.96.98 1.84.98.88 0 1.494-.327 1.84-.98.347-.653.52-1.613.52-2.88zm7.54 9.3c0 .373-.13.647-.39.82-.26.173-.563.26-.91.26-.333 0-.63-.087-.89-.26-.26-.173-.39-.447-.39-.82V12.42c0-.373.13-.647.39-.82.26-.173.557-.26.89-.26.347 0 .65.087.91.26.26.173.39.447.39.82v15.32zm3.847-13c-.307 0-.533-.107-.68-.32a1.308 1.308 0 0 1-.22-.76c0-.293.073-.547.22-.76.147-.213.373-.32.68-.32h5.64c.64 0 1.083.12 1.33.36.247.24.37.673.37 1.3v3.7c0 .627-.123 1.06-.37 1.3s-.69.36-1.33.36h-3.54c-.307 0-.46.153-.46.46v1.96c0 .307.153.46.46.46 1.12 0 2.19-.027 3.21-.08a32.863 32.863 0 0 0 2.93-.28c.307-.04.55.033.73.22.18.187.283.42.31.7a1.59 1.59 0 0 1-.12.81c-.107.233-.307.37-.6.41-.387.053-.827.103-1.32.15-.493.047-1.053.087-1.68.12s-1.33.06-2.11.08c-.78.02-1.657.03-2.63.03-.64 0-1.083-.12-1.33-.36-.247-.24-.37-.673-.37-1.3v-3.8c0-.627.123-1.06.37-1.3s.69-.36 1.33-.36h3.54c.307 0 .46-.153.46-.46V15.2c0-.307-.153-.46-.46-.46h-4.36zm11.1 4.66h-1.92c-.32 0-.553-.107-.7-.32a1.343 1.343 0 0 1-.22-.78c0-.307.073-.567.22-.78.147-.213.38-.32.7-.32h1.92v-4.78c0-.373.13-.647.39-.82.26-.173.557-.26.89-.26.32 0 .61.087.87.26.26.173.39.447.39.82v15.32c0 .373-.13.647-.39.82-.26.173-.55.26-.87.26-.333 0-.63-.087-.89-.26-.26-.173-.39-.447-.39-.82V19.4zm7.247 1.4c-.64 0-1.084-.12-1.33-.36-.247-.24-.37-.673-.37-1.3v-5.9c0-.373.13-.647.39-.82.26-.173.556-.26.89-.26.346 0 .65.087.91.26.26.173.39.447.39.82v4.92c0 .307.153.46.46.46 1.213 0 2.34-.03 3.38-.09s2.046-.157 3.02-.29c.306-.04.55.033.73.22.18.187.283.427.31.72a1.59 1.59 0 0 1-.12.81c-.107.233-.307.37-.6.41-.414.053-.87.103-1.37.15-.5.047-1.077.09-1.73.13-.654.04-1.387.07-2.2.09-.814.02-1.734.03-2.76.03zm12.54.48c0 .373-.13.647-.39.82-.26.173-.557.26-.89.26-.334 0-.63-.087-.89-.26-.26-.173-.39-.447-.39-.82v-8.86c0-.373.13-.647.39-.82.26-.173.556-.26.89-.26.333 0 .63.087.89.26.26.173.39.447.39.82v8.86zm-11.94 5.08c0-.653.136-1.223.41-1.71.273-.487.67-.89 1.19-1.21.52-.32 1.15-.56 1.89-.72.74-.16 1.576-.24 2.51-.24.933 0 1.77.08 2.51.24.74.16 1.37.4 1.89.72.52.32.916.723 1.19 1.21.273.487.41 1.057.41 1.71 0 1.307-.534 2.28-1.6 2.92-1.067.64-2.534.96-4.4.96-1.867 0-3.334-.32-4.4-.96-1.067-.64-1.6-1.613-1.6-2.92zm9.46 0c0-.56-.264-1.007-.79-1.34-.527-.333-1.417-.5-2.67-.5-1.254 0-2.144.167-2.67.5-.527.333-.79.78-.79 1.34s.263 1.007.79 1.34c.526.333 1.416.5 2.67.5 1.253 0 2.143-.167 2.67-.5.526-.333.79-.78.79-1.34z"/>
</svg>
